<?xml version="1.0" encoding="UTF-8"?><svg id="_Ñëîé_1" xmlns="http://www.w3.org/2000/svg" xmlns:xlink="http://www.w3.org/1999/xlink" viewBox="0 0 3006 1014.37"><defs><style>.cls-1,.cls-2{fill:#0049ff;}.cls-3{opacity:.2;}.cls-4{opacity:.1;}.cls-2{opacity:.5;}.cls-5{fill:#277aff;}.cls-6{fill:url(#linear-gradient);}.cls-7{fill:#5aa5ff;}.cls-8{fill:#0068ff;}.cls-9{fill:#0031cc;}</style><linearGradient id="linear-gradient" x1="1847.22" y1="669.31" x2="1847.22" y2="1020.6" gradientUnits="userSpaceOnUse"><stop offset="0" stop-color="#95e3ff"/><stop offset=".16" stop-color="#82d7ff"/><stop offset=".49" stop-color="#53b8ff"/><stop offset=".95" stop-color="#0887ff"/><stop offset="1" stop-color="#0082ff"/></linearGradient></defs><path class="cls-7" d="m1296.73,340.9h-.18v-1.06h-127.6v1.06h-.18v676h.18s0,0,0,0h127.6s.18,0,.18,0h0V340.9h0Zm-23.26,8.23h-4.33v-7.15h4.33v7.15Zm-63.31,0h-4.33v-7.15h4.33v7.15Zm82.77,0h-4.33v-7.15h4.33v7.15Zm-5.66-7.15v7.15h-4.33v-7.15h4.33Zm-8.14,7.15h-4.33v-7.15h4.33v7.15Zm-13.79,0h-4.33v-7.15h4.33v7.15Zm-5.66,0h-4.33v-7.15h4.33v7.15Zm-8.14,0h-4.33v-7.15h4.33v7.15Zm-5.66,0h-4.33v-7.15h4.33v7.15Zm-8.14,0h-4.33v-7.15h4.33v7.15Zm-5.66,0h-4.33v-7.15h4.33v7.15Zm-8.14,0h-4.33v-7.15h4.33v7.15Zm-5.66,0h-4.33v-7.15h4.33v7.15Zm-13.79-7.15v7.15h-4.33v-7.15h4.33Zm-8.14,7.15h-4.33v-7.15h4.33v7.15Zm-5.66-7.15v7.15h-4.33v-7.15h4.33Zm-8.14,7.15h-4.33v-7.15h4.33v7.15Zm-5.66-7.15v7.15h-4.33v-7.15h4.33Z"/><polygon class="cls-7" points="1148.19 972.13 1152.87 967.45 1133.87 948.45 1133.87 594.92 1138.29 594.92 1138.29 554.08 1133.87 554.08 1046.3 554.08 1046.3 303.5 1049.61 303.5 1049.61 295.22 1021.46 295.22 1021.46 243.06 1020.22 243.06 1020.22 208.29 1014.43 208.29 1014.43 243.06 1013.18 243.06 1013.18 295.22 993.31 295.22 993.31 303.5 996.63 303.5 996.63 320.06 875.2 320.06 873.54 320.06 873.54 360.9 875.2 360.9 875.2 1023.23 985.59 1023.23 990 1023.23 998.83 1023.23 1133.87 1023.23 1138.29 1023.23 1138.29 982.39 1133.87 982.39 1133.87 971.76 1136.05 973.93 1140.73 969.25 1133.87 962.39 1133.87 957.82 1148.19 972.13"/><polygon class="cls-5" points="1166.5 643.85 1166.5 634.8 1112.23 634.8 1112.23 643.85 1073.23 643.85 1073.23 643.88 1073.23 1012.32 1082.16 1012.32 1196.56 1012.32 1205.49 1012.32 1205.49 643.88 1205.49 643.85 1166.5 643.85"/><rect class="cls-6" x="1765.78" y="669.31" width="162.88" height="351.29"/><polygon class="cls-7" points="2062.74 461.38 2062.74 391.31 1978.01 391.31 1978.01 461.38 1978.01 949.22 1978.01 1019.3 2147.47 1019.3 2147.47 461.38 2062.74 461.38"/><polygon class="cls-7" points="2669.18 361.65 2659.63 361.65 2659.63 337.3 2649.79 337.3 2649.79 330.84 2639.08 330.84 2639.08 324.88 2622.44 324.88 2622.44 317.67 2610.57 317.67 2610.57 324.88 2597.4 324.88 2597.4 319.41 2585.53 319.41 2585.53 324.88 2569.9 324.88 2569.9 330.84 2559.2 330.84 2559.2 337.3 2549.35 337.3 2549.35 361.65 2539.8 361.65 2529.38 365.87 2529.38 1026.51 2679.6 1026.51 2679.6 365.87 2669.18 361.65"/><path class="cls-7" d="m2736.9,846.62v-9.2h-14.63v-10.02h-2.16v-13.91h1.24v-44.8h-5.83v44.8h1.24v13.91h-9.73v10.02h-4.7v-17.18h-15.24v17.18h-5.5v-2.92h-5.83v2.92h-3.07v-4.7h-15.24v4.7h-20.35v9.2h-64.23v37.43h-48.33l-13.3-63.82h-6.14v-185.93h-5.93v-112.95h.91v1.07h2.38v-1.07h8.17v-4.26h2.65v1.69h2.38v-1.69h1.32v-4.55h-1.84v-2.77h1.84v-.92h-1.84v-.94h-1.33v.94h-12.17v-.94h-1.33v.94h-1.12v-13.93h.91v1.07h2.38v-1.07h8.17v-4.26h2.65v1.69h2.38v-1.69h1.32v-4.55h-1.84v-2.77h1.84v-.92h-1.84v-.94h-1.33v.94h-12.17v-.94h-1.33v.94h-1.12v-9.58h.91v1.07h2.38v-1.07h8.17v-4.26h2.65v1.69h2.38v-1.69h1.32v-2.39h2.25v-22.09h-2.25v-3.39h-1.84v-2.77h1.84v-.92h-1.84v-.94h-1.33v.94h-12.17v-.94h-1.33v.94h-1.12v-137.78h.91v1.07h2.38v-1.07h8.17v-4.26h2.65v1.69h2.38v-1.69h1.32v-4.55h-1.84v-2.77h1.84v-.92h-1.84v-.94h-1.33v.94h-12.17v-.94h-1.33v.94h-1.12v-13.93h.91v1.07h2.38v-1.07h8.17v-4.26h2.65v1.69h2.38v-1.69h1.32v-4.55h-1.84v-2.77h1.84v-.92h-1.84v-.94h-1.33v.94h-12.17v-.94h-1.33v.94h-1.12v-13.93h.91v1.07h2.38v-1.07h8.17v-4.26h2.65v1.69h2.38v-1.69h1.32v-4.55h-1.84v-2.77h1.84v-.92h-1.84v-.94h-1.33v.94h-12.17v-.94h-1.33v.94h-1.12v-13.08h.91v1.07h2.38v-1.07h8.17v-4.26h2.65v1.69h2.38v-1.69h1.32v-4.55h-1.84v-2.77h1.84v-.92h-1.84v-.94h-1.33v.94h-12.17v-.94h-1.33v.94h-1.12v-21.27h-14.63v-7.36h-2.71v-3.6h1.56v-1.99h-1.56v-2.4h1.36v-1.02h-1.36v-1.43h1.36v-1.02h-1.36v-1.43h1.36v-1.02h-1.36v-3.17h1.56v-1.99h-1.56v-2.4h1.36v-1.02h-1.36v-1.43h1.36v-1.02h-1.36v-1.43h1.36v-1.02h-1.36v-3.17h1.56v-1.99h-1.56v-2.4h1.36v-1.02h-1.36v-1.43h1.36v-1.02h-1.36v-1.43h1.36v-1.02h-1.36v-3.17h1.56v-1.99h-1.56v-2.4h1.36v-1.02h-1.36v-1.43h1.36v-1.02h-1.36v-1.43h1.36v-1.02h-1.36v-3.17h1.56v-1.99h-1.56v-3.63h1.36v-1.02h-1.36v-1.43h1.36v-1.02h-1.36v-1.43h1.36v-1.02h-1.36v-1.94h1.56v-1.99h-1.56v-3.63h1.36v-1.02h-1.36v-1.43h1.36v-1.02h-1.36v-1.43h1.36v-1.02h-1.36v-1.94h1.56v-1.99h-1.56v-1.76h-2.86v-1.87h4.22v-1.02h-4.22v-1.43h1.71v-1.02h-1.71v-1.43h4.22v-1.02h-4.22v-1.94h1.43v-1.99h-1.43v-3.63h4.22v-1.02h-4.22v-1.43h1.71v-1.02h-1.71v-1.43h4.22v-1.02h-4.22v-1.94h1.43v-1.99h-1.43v-3.63h4.22v-1.02h-4.22v-1.43h1.71v-1.02h-1.71v-1.43h4.22v-1.02h-4.22v-1.94h1.43v-1.99h-1.43v-4.86h1.71v-1.02h-1.71v-5.63h1.43v-1.99h-1.43v-3.14h-.52v-1.71h.88v-1.02h-.88v-1h-1.71v-15.97h.5v-1.39h-1.04v-1.52h-.34V0h-.7v13.24h-.34v1.52h-1.04v1.39h.5v15.97h-1.58v1h-1.56v1.02h1.56v1.71h-.79v3.14h-1.43v1.99h1.43v5.63h-2.12v1.02h2.12v4.86h-1.43v1.99h1.43v1.94h-4.63v1.02h4.63v1.43h-2.12v1.02h2.12v1.43h-4.63v1.02h4.63v3.63h-1.43v1.99h1.43v1.94h-4.63v1.02h4.63v1.43h-2.12v1.02h2.12v1.43h-4.63v1.02h4.63v3.63h-1.43v1.99h1.43v1.94h-4.63v1.02h4.63v1.43h-2.12v1.02h2.12v1.43h-4.63v1.02h4.63v1.87h-2.86v1.76h-1.56v1.99h1.56v1.94h-1.76v1.02h1.76v1.43h-1.76v1.02h1.76v1.43h-1.76v1.02h1.76v3.63h-1.56v1.99h1.56v1.94h-1.76v1.02h1.76v1.43h-1.76v1.02h1.76v1.43h-1.76v1.02h1.76v3.63h-1.56v1.99h1.56v3.17h-1.76v1.02h1.76v1.43h-1.76v1.02h1.76v1.43h-1.76v1.02h1.76v2.4h-1.56v1.99h1.56v3.17h-1.76v1.02h1.76v1.43h-1.76v1.02h1.76v1.43h-1.76v1.02h1.76v2.4h-1.56v1.99h1.56v3.17h-1.76v1.02h1.76v1.43h-1.76v1.02h1.76v1.43h-1.76v1.02h1.76v2.4h-1.56v1.99h1.56v3.17h-1.76v1.02h1.76v1.43h-1.76v1.02h1.76v1.43h-1.76v1.02h1.76v2.4h-1.56v1.99h1.56v3.6h-2.71v7.36h-14.63v21.27h-1.18v-.94h-1.33v.94h-12.17v-.94h-1.33v.94h-1.79v.92h1.79v2.77h-1.79v4.55h1.27v1.69h2.38v-1.69h2.7v4.26h8.42v1.07h2.38v-1.07h.65v13.08h-1.18v-.94h-1.33v.94h-12.17v-.94h-1.33v.94h-1.79v.92h1.79v2.77h-1.79v4.55h1.27v1.69h2.38v-1.69h2.7v4.26h8.42v1.07h2.38v-1.07h.65v13.93h-1.18v-.94h-1.33v.94h-12.17v-.94h-1.33v.94h-1.79v.92h1.79v2.77h-1.79v4.55h1.27v1.69h2.38v-1.69h2.7v4.26h8.42v1.07h2.38v-1.07h.65v13.93h-1.18v-.94h-1.33v.94h-12.17v-.94h-1.33v.94h-1.79v.92h1.79v2.77h-1.79v4.55h1.27v1.69h2.38v-1.69h2.7v4.26h8.42v1.07h2.38v-1.07h.65v137.78h-1.18v-.94h-1.33v.94h-12.17v-.94h-1.33v.94h-1.79v.92h1.79v2.77h-1.79v3.39h-2.25v22.09h2.25v2.39h1.27v1.69h2.38v-1.69h2.7v4.26h8.42v1.07h2.38v-1.07h.65v9.58h-1.18v-.94h-1.33v.94h-12.17v-.94h-1.33v.94h-1.79v.92h1.79v2.77h-1.79v4.55h1.27v1.69h2.38v-1.69h2.7v4.26h8.42v1.07h2.38v-1.07h.65v13.93h-1.18v-.94h-1.33v.94h-12.17v-.94h-1.33v.94h-1.79v.92h1.79v2.77h-1.79v4.55h1.27v1.69h2.38v-1.69h2.7v4.26h8.42v1.07h2.38v-1.07h.65v112.95h-5.93v185.93h-6.14l-35.41,169.98h-8.16v31.91h158.73v-31.91h-8.16l-15.47-74.25h41.68v106.16h185.91v-175.5h-21.88Zm-235.26-336.86h12.17v2.77h-12.17v-2.77Zm0-26.44h12.17v2.77h-12.17v-2.77Zm0-195.7h12.17v2.77h-12.17v-2.77Zm0-26.44h12.17v2.77h-12.17v-2.77Zm0-26.44h12.17v2.77h-12.17v-2.77Zm0-25.59h12.17v2.77h-12.17v-2.77Zm-24.23-111.2v.79h-3.9v-.79h3.9Zm-3.9-1.02v-1.94h3.9v1.94h-3.9Zm0,4.12h3.9v.79h-3.9v-.79Zm3.9,1.81v3.63h-3.9v-3.63h3.9Zm0,5.63v1.94h-3.9v-1.94h3.9Zm0,2.97v.79h-3.9v-.79h3.9Zm-3.9,3.09h3.9v.79h-3.9v-.79Zm2.5-60.06v1.94h-.84v-1.94h.84Zm-.84-1.99v-4.86h.84v4.86h-.84Zm.84,4.96v.79h-.84v-.79h.84Zm0-10.84h-.84v-5.63h.84v5.63Zm0-12.48v4.86h-.84v-4.86h.84Zm-2.5,26.41h3.9v.79h-3.9v-.79Zm0,1.82h3.9v3.63h-3.9v-3.63Zm0,5.63h3.9v1.94h-3.9v-1.94Zm3.9,2.97v.79h-3.9v-.79h3.9Zm-3.9,3.09h3.9v.79h-3.9v-.79Zm0,1.82h3.9v3.63h-3.9v-3.63Zm0,5.63h3.9v1.94h-3.9v-1.94Zm3.9,2.97v.79h-3.9v-.79h3.9Zm-3.9,3.09h3.9v.79h-3.9v-.79Zm3.9,1.82v3.63h-3.9v-3.63h3.9Zm-5.48,29.48h1.58v-2.48h3.9v2.48h1.58v1.15h-7.06v-1.15Zm0,3.15h7.06v3.17h-7.06v-3.17Zm0,4.19h7.06v1.43h-1.41v-.64h-4.65v.64h-1v-1.43Zm0,2.45h1v.64h4.65v-.64h1.41v1.43h-7.06v-1.43Zm0,2.45h7.06v2.4h-7.06v-2.4Zm0,4.4h7.06v3.17h-7.06v-3.17Zm0,4.19h7.06v1.43h-1.41v-.64h-4.65v.64h-1v-1.43Zm0,2.45h1v.64h4.65v-.64h1.41v1.43h-7.06v-1.43Zm0,2.45h7.06v2.4h-7.06v-2.4Zm0,4.4h7.06v3.17h-7.06v-3.17Zm0,4.19h7.06v1.43h-1.41v-.64h-4.65v.64h-1v-1.43Zm0,2.45h1v.64h4.65v-.64h1.41v1.43h-7.06v-1.43Zm0,2.45h7.06v2.4h-7.06v-2.4Zm0,4.4h7.06v3.17h-7.06v-3.17Zm0,4.19h7.06v1.43h-1.41v-.64h-4.65v.64h-1v-1.43Zm0,2.45h1v.64h4.65v-.64h1.41v1.43h-7.06v-1.43Zm0,2.45h7.06v2.4h-7.06v-2.4Zm0,4.4h7.06v3.6h-7.06v-3.6Zm-22.7,35.93h-12.17v-2.77h12.17v2.77Zm51.09-2.77v2.77h-1.12v-2.77h1.12Zm-49.76,2.77v-2.77h1.18v2.77h-1.18Zm-1.33,25.59h-12.17v-2.77h12.17v2.77Zm51.09-2.77v2.77h-1.12v-2.77h1.12Zm-49.76,2.77v-2.77h1.18v2.77h-1.18Zm-1.33,26.44h-12.17v-2.77h12.17v2.77Zm51.09-2.77v2.77h-1.12v-2.77h1.12Zm-49.76,2.77v-2.77h1.18v2.77h-1.18Zm-1.33,26.44h-12.17v-2.77h12.17v2.77Zm51.09-2.77v2.77h-1.12v-2.77h1.12Zm-49.76,2.77v-2.77h1.18v2.77h-1.18Zm51.09,147.51h12.17v2.77h-12.17v-2.77Zm-1.33,0v2.77h-1.12v-2.77h1.12Zm-49.76,0h1.18v2.77h-1.18v-2.77Zm-13.5,0h12.17v2.77h-12.17v-2.77Zm12.17,48.18h-12.17v-2.77h12.17v2.77Zm51.09-2.77v2.77h-1.12v-2.77h1.12Zm-49.76,2.77v-2.77h1.18v2.77h-1.18Zm-1.33,26.44h-12.17v-2.77h12.17v2.77Zm51.09-2.77v2.77h-1.12v-2.77h1.12Zm-49.76,2.77v-2.77h1.18v2.77h-1.18Z"/><polygon class="cls-5" points="2778.31 763.11 2778.31 732.35 2773.57 732.35 2773.57 717.38 2768.04 717.38 2768.04 701.74 2659.66 701.74 2659.66 717.38 2654.14 717.38 2654.14 732.35 2649.39 732.35 2649.39 763.11 2644.02 763.11 2644.02 1019 2783.68 1019 2783.68 763.11 2778.31 763.11"/><polygon class="cls-5" points="2481.66 838.21 2481.66 708.73 2467.07 708.73 2467.07 678.97 2442.72 678.97 2442.72 676.75 2437.3 676.75 2437.3 630.87 2435.61 630.87 2435.61 676.75 2430.19 676.75 2430.19 678.97 2405.84 678.97 2405.84 708.73 2391.25 708.73 2391.25 882.9 2384.92 882.9 2384.92 896.58 2372.89 896.58 2372.89 909.88 2359.45 909.88 2359.45 924.9 2346.75 924.9 2346.75 1026.63 2485.4 1026.63 2485.4 984.63 2485.4 939.93 2485.4 924.9 2485.4 882.9 2485.4 838.21 2481.66 838.21"/><polygon class="cls-7" points="506.56 991.46 513.14 991.46 513.14 478.45 529.58 478.45 529.58 474.97 545.11 474.97 545.11 478.45 622.23 478.45 622.23 498.88 639.15 498.88 639.15 991.46 651.36 991.46 651.36 1022.27 639.15 1022.27 639.15 1023.59 622.23 1023.59 530.07 1023.59 513.14 1023.59 513.14 1022.27 506.56 1022.27 506.56 991.46"/><polygon class="cls-7" points="351.1 973.52 351.1 970.08 352.3 970.08 352.3 965.68 351.1 965.68 351.1 962.24 351.1 957.85 351.1 954.43 351.1 950.03 351.1 946.62 351.1 942.2 351.1 938.78 351.1 934.37 351.1 930.95 351.1 926.55 351.1 923.11 351.1 918.72 351.1 915.28 351.1 910.87 351.1 907.45 351.1 903.04 351.1 899.62 351.1 895.21 351.1 891.79 351.1 887.38 351.1 883.96 351.1 879.56 351.1 876.13 351.1 871.74 351.1 868.3 351.1 863.9 351.1 860.47 351.1 856.07 351.1 852.64 351.1 848.24 351.1 844.82 351.1 840.41 351.1 836.99 351.1 832.58 351.1 829.15 351.1 824.74 351.1 821.32 351.1 816.92 351.1 813.5 351.1 809.09 351.1 805.67 351.1 801.27 351.1 797.84 351.1 793.43 351.1 790.01 351.1 785.6 351.1 782.18 351.1 777.77 351.1 774.35 351.1 769.94 351.1 766.51 351.1 762.12 351.1 758.69 351.1 754.28 351.1 750.86 351.1 746.45 351.1 743.03 351.1 738.62 351.1 735.2 351.1 730.79 351.1 727.36 351.1 722.96 351.1 719.52 351.1 715.13 351.1 711.69 351.1 707.29 351.1 703.87 351.1 699.47 351.1 696.04 351.1 691.64 351.1 688.21 351.1 683.8 351.1 680.39 351.1 675.98 351.1 672.55 351.1 668.16 351.1 664.73 351.1 660.32 351.1 656.89 351.1 652.49 351.1 649.07 351.1 644.66 351.1 641.24 351.1 636.83 351.1 633.41 351.1 629 351.1 625.57 351.1 621.17 351.1 617.75 351.1 613.34 351.1 609.92 351.1 605.52 351.1 602.09 351.1 597.68 351.1 594.25 351.1 589.85 351.1 586.43 351.1 582.02 351.1 578.6 351.1 574.19 351.1 570.77 351.1 566.37 351.1 562.95 351.1 558.54 351.1 555.11 351.1 550.7 351.1 547.28 351.1 542.87 351.1 539.45 351.1 535.04 351.1 531.63 351.1 527.23 351.1 523.79 351.1 519.4 351.1 515.96 351.1 511.57 351.1 508.13 351.1 503.73 351.1 500.3 351.1 495.9 351.1 492.48 346.18 488.08 346.18 484.64 346.13 480.25 338.14 476.91 316.67 468.11 296.26 468.11 223.13 468.11 217.47 468.11 217.47 476.81 217.47 480.25 217.47 484.64 217.47 488.08 217.47 492.48 217.47 495.9 217.47 500.3 217.47 503.73 217.47 508.13 217.47 511.57 217.47 515.96 217.47 519.4 217.47 523.79 217.47 527.23 217.47 531.63 217.47 535.04 217.47 539.45 217.47 542.87 217.47 547.28 217.47 550.7 217.47 555.11 217.47 558.54 217.47 562.95 217.47 566.37 217.47 570.77 217.47 574.19 217.47 578.6 217.47 582.02 217.47 586.43 217.47 589.85 217.47 594.25 217.47 597.68 217.47 602.09 217.47 605.52 217.47 609.92 217.47 613.34 217.47 617.75 217.47 621.17 217.47 625.57 217.47 629 217.47 633.41 217.47 636.83 217.47 641.24 217.47 644.66 217.47 649.07 217.47 652.49 217.47 656.89 217.47 660.32 217.47 664.73 217.47 668.16 217.47 672.55 217.47 675.98 217.47 680.39 217.47 683.8 217.47 688.21 217.47 691.64 217.47 696.04 217.47 699.47 217.47 703.87 217.47 707.29 217.47 711.69 217.47 715.13 217.47 719.52 217.47 722.96 217.47 727.36 217.47 730.79 217.47 735.2 217.47 738.62 217.47 743.03 217.47 746.45 217.47 750.86 217.47 754.28 217.47 758.69 217.47 762.12 217.47 766.51 217.47 769.94 217.47 774.35 217.47 777.77 217.47 782.18 217.47 785.6 217.47 790.01 217.47 793.43 217.47 797.84 217.47 801.27 217.47 805.67 217.47 809.09 217.47 813.5 217.47 816.92 217.47 821.32 217.47 824.74 217.47 829.15 217.47 832.58 217.47 836.99 217.47 840.41 217.47 844.82 217.47 848.24 217.47 852.64 217.47 856.07 217.47 860.47 217.47 863.9 217.47 868.3 217.47 871.74 217.47 876.13 217.47 879.56 217.47 883.96 217.47 887.38 217.47 891.79 217.47 895.21 217.47 899.62 217.47 903.04 217.47 907.45 217.47 910.87 217.47 915.28 217.47 918.72 217.47 923.11 217.47 926.55 217.47 930.95 217.47 934.37 217.47 938.78 217.47 942.2 217.47 946.62 217.47 950.03 217.47 954.43 217.47 957.85 217.47 962.24 217.47 965.68 217.47 970.08 217.47 973.52 139.54 973.52 139.54 981.17 139.54 988.04 139.54 992.72 139.54 999.58 139.54 1004.27 139.54 1011.12 139.54 1015.82 139.54 1020.58 139.54 1020.6 185.29 1020.6 189.86 1020.6 235.59 1020.6 242.3 1020.6 288.04 1020.6 294.03 1020.6 339.78 1020.6 346.97 1020.6 372.92 1020.6 374.21 1020.6 374.21 1020.58 374.21 1015.82 374.21 1011.12 374.21 1004.27 374.21 999.58 374.21 992.72 374.21 988.04 374.21 981.17 374.21 973.52 351.1 973.52"/><polygon class="cls-5" points="950.98 615.4 948.24 615.4 948.24 610.88 948.34 610.88 948.34 608.86 948.24 608.86 948.24 605.17 948.34 605.17 948.34 603.15 948.24 603.15 948.24 599.46 948.34 599.46 948.34 597.43 948.24 597.43 948.24 593.75 948.34 593.75 948.34 591.72 948.24 591.72 948.24 588.75 945.77 588.75 942.79 588.75 942.79 583.99 934.13 583.99 934.13 581.3 928.51 581.3 922.22 576.53 846.97 576.53 840.68 581.3 835.06 581.3 835.06 583.99 826.4 583.99 826.4 588.75 820.95 588.75 820.95 615.4 805.02 615.4 805.02 1023.23 811.11 1023.23 814.46 1023.23 817.8 1023.23 820.95 1023.23 824.3 1023.23 827.45 1023.23 830.79 1023.23 833.94 1023.23 837.29 1023.23 840.44 1023.23 843.79 1023.23 846.94 1023.23 850.28 1023.23 853.43 1023.23 856.78 1023.23 859.93 1023.23 863.28 1023.23 866.43 1023.23 869.77 1023.23 872.92 1023.23 876.27 1023.23 879.42 1023.23 882.76 1023.23 885.91 1023.23 889.26 1023.23 892.41 1023.23 895.76 1023.23 898.91 1023.23 902.25 1023.23 905.4 1023.23 908.75 1023.23 911.9 1023.23 915.24 1023.23 918.4 1023.23 921.74 1023.23 924.89 1023.23 928.24 1023.23 931.39 1023.23 934.74 1023.23 937.88 1023.23 941.23 1023.23 944.38 1023.23 947.73 1023.23 950.88 1023.23 954.22 1023.23 958.69 1023.23 964.17 1023.23 964.17 615.4 950.98 615.4"/><polygon class="cls-7" points="1305.07 931.62 1322.53 931.62 1322.53 797.73 1329.65 797.73 1329.65 792.28 1350.99 792.28 1350.99 832.36 1356.38 832.36 1356.38 571.66 1368.67 571.66 1368.67 543.7 1378.81 543.7 1379.01 531.27 1392.6 538.91 1392.6 552.32 1405.96 552.32 1405.96 546.18 1405.96 540.59 1412 540.59 1412 546.18 1412 552.32 1453.82 552.32 1453.82 546.18 1453.82 540.59 1459.86 540.59 1459.86 546.18 1459.86 552.32 1473.23 552.32 1473.23 538.91 1486.81 531.27 1487.01 543.7 1497.16 543.7 1497.16 571.66 1509.44 571.66 1509.44 832.36 1536.61 832.36 1536.61 770.84 1537.47 770.84 1537.47 399.26 1549.76 399.26 1549.76 385.85 1559.98 385.85 1560.11 380.69 1573.69 381.06 1573.69 387.2 1587.06 387.2 1587.06 388.33 1587.06 382.74 1593.09 382.74 1593.09 388.33 1593.09 387.2 1634.92 387.2 1634.92 388.33 1634.92 382.74 1640.95 382.74 1640.95 388.33 1640.95 387.2 1654.32 387.2 1654.32 381.06 1667.9 380.69 1668.03 385.85 1678.25 385.85 1678.25 399.26 1690.54 399.26 1690.54 770.84 1722.23 770.84 1722.23 757.56 1743.57 757.56 1743.57 763.85 1750.69 763.85 1750.69 931.62 1760.39 931.62 1760.39 1016.9 1750.69 1016.9 1743.57 1016.9 1729.34 1016.9 1722.23 1016.9 1654.32 1016.9 1565.5 1016.9 1536.61 1016.9 1473.23 1016.9 1384.4 1016.9 1350.99 1016.9 1350.99 1016.9 1343.88 1016.9 1329.65 1016.9 1322.53 1016.9 1322.53 1016.9 1305.07 1016.9 1305.07 931.62"/><polygon class="cls-8" points="549.46 704.8 549.46 690.35 495.18 690.35 495.18 704.8 456.19 704.8 456.19 704.82 456.19 1012.32 465.12 1012.32 579.52 1012.32 588.45 1012.32 588.45 704.82 588.45 704.8 549.46 704.8"/><path class="cls-5" d="m316.44,815.18l1.88,3.31-2.31,1.32-9.99-7.06h-1.62v-.95h.71v-2.06h-.48l96.07-54.65-1.17-2.06-2.38,1.35-5.13-9.02,2.38-1.35-1.17-2.06-2.38,1.35-2.67-4.7,2.38-1.35-1.17-2.06-94.46,53.73,1.17,2.06,3.31-1.88,2.67,4.7-3.31,1.88,1.17,2.06,3.31-1.88,2.32,4.08-4.89,2.78,2.81,4.94-3.65,2.07h-1.61c-1.13-.98-2.69-1.44-4.26-1.1l-54.7-103.76-2.09,1.1,1.27,2.42-9.18,4.84-1.27-2.42-2.09,1.1,1.27,2.42-4.78,2.52-1.27-2.42-2.09,1.1,50.68,96.13,2.09-1.1-1.78-3.37,4.78-2.52,1.78,3.37,2.09-1.1-1.78-3.37,4.15-2.19,2.63,4.98,5.03-2.65,3.14,5.96s-.05.04-.07.06h-6.86v2.06h.71v.95h-1.62l-2.2,1.55-.21-.36-4.88,2.81-2.34-4.07,3.3-1.9-1.18-2.05-17.6,10.13-2.7-4.68,9.73-5.6-1.18-2.05-86.31,49.67,1.18,2.05,2.37-1.36,2.7,4.68-2.37,1.36,1.18,2.05,2.37-1.36,5.18,9-2.37,1.36,1.18,2.05,71.16-40.95v1.84h-.85v3.3h3.28v3.66h10.06v2.83h.47v3.97h.89v1.94h1.05v1.05h-.32l-9.65,66.01h-23.82v1.42h1.68v2.47h-1.68v1.42h1.68v1.46h-1.68v3.89h1.01l20.02,27.8-.04.53h-2.15v1.29h.76l-.18,2.36h0l-6.8,58h80.55l-6.8-58h0l-.17-2.36h.85v-1.29h-2.24l-.04-.53,20.02-27.8h1.01v-3.89h-1.68v-1.46h1.68v-1.42h-1.68v-2.47h1.68v-1.42h-23.82l-9.65-66.01h-.32v-1.05h.01l38.21,67.17,2.06-1.17-1.35-2.38,9.02-5.13,1.35,2.38,2.06-1.17-1.35-2.38,4.7-2.67,1.35,2.38,2.06-1.17-53.73-94.46-2.06,1.17Zm34.41-41.01l-2.32-4.08,12.09-6.88,2.32,4.08-12.09,6.88Zm-2.25,1.28l-12.09,6.88-2.32-4.08,12.09-6.88,2.32,4.08Zm16.6-9.44l-2.32-4.08,12.09-6.88,2.32,4.08-12.09,6.88Zm-3.49-6.14l-2.67-4.7,12.09-6.88,2.67,4.7-12.09,6.88Zm-2.25,1.28l-12.09,6.88-2.67-4.7,12.09-6.88,2.67,4.7Zm-14.34,8.16l-12.09,6.88-2.67-4.7,12.09-6.88,2.67,4.7Zm-14.34,8.16l-12.09,6.88-2.67-4.7,12.09-6.88,2.67,4.7Zm1.17,2.06l2.32,4.08-12.09,6.88-2.32-4.08,12.09-6.88Zm60.15-28.82l-12.55,7.14-2.32-4.08,12.55-7.14,2.32,4.08Zm-3.49-6.14l-12.55,7.14-2.67-4.7,12.55-7.14,2.67,4.7Zm-86.93,43.23l12.09-6.88,2.67,4.7-12.09,6.88-2.67-4.7Zm3.84,6.75l12.09-6.88,2.32,4.08-12.09,6.88-2.32-4.08Zm35.42,130.41v1.46h-8.78v-1.46h8.78Zm-8.78-1.42v-2.47h8.78v2.47h-8.78Zm-1.42,2.87h-6.15l-.11-1.46h6.25v1.46Zm-65.74,6.28l-.82,11.29-4.69-13.68h5.02l.49,2.39Zm-1.13,15.58l-.33,4.47-12.31-22.44h6.48l6.16,17.97Zm62.31,0l6.16-17.97h6.48l-12.31,22.44-.33-4.47Zm-.31-4.29l-.82-11.29.49-2.39h5.02l-4.69,13.68Zm-67.98-19.02v1.46h-8.78v-1.46h8.78Zm-8.78-1.42v-2.47h8.78v2.47h-8.78Zm10.2,1.42h6.25l-.11,1.46h-6.15v-1.46Zm6.36-1.42h-6.36v-2.47h6.54l-.18,2.47Zm-20.44-2.47h2.47v2.47h-2.47v-2.47Zm0,3.89h2.47v1.46h-2.47v-1.46Zm-.3,5.34h4.53l13.88,25.31-.02.25-18.4-25.55Zm81.81,25.55l-.02-.25,13.88-25.31h4.53l-18.4,25.55Zm18.1-29.44h-2.47v-1.46h2.47v1.46Zm0-2.87h-2.47v-2.47h2.47v2.47Zm-14.08-2.47v2.47h-6.36l-.18-2.47h6.54Zm-11.12-100.35l1.53,2.68-2.78-1.97,1.26-.72Zm13.64,49.19l4.08-2.32,6.88,12.09-4.08,2.32-6.88-12.09Zm-1.28-2.25l-6.88-12.09,4.08-2.32,6.88,12.09-4.08,2.32Zm-8.16-14.34l-5.39-9.47h5.4l4.07,7.15-4.08,2.32Zm-104.3-3.68l-2.34-4.07,12.05-6.94,2.34,4.07-12.05,6.94Zm28.6-16.46l-2.34-4.07,12.05-6.94,2.34,4.07-12.05,6.94Zm-2.25,1.29l-12.05,6.94-2.34-4.07,12.05-6.94,2.34,4.07Zm-15.58.82l-2.7-4.68,12.05-6.94,2.7,4.68-12.05,6.94Zm-2.25,1.29l-12.05,6.94-2.7-4.68,12.05-6.94,2.7,4.68Zm-14.3,8.23l-12.05,6.94-2.7-4.68,12.05-6.94,2.7,4.68Zm1.18,2.05l2.34,4.07-12.05,6.94-2.34-4.07,12.05-6.94Zm126.48,37.39l4.08-2.32,6.88,12.09-4.08,2.32-6.88-12.09Zm6.14-3.49l4.7-2.67,6.88,12.09-4.7,2.67-6.88-12.09Zm-1.28-2.25l-6.88-12.09,4.7-2.67,6.88,12.09-4.7,2.67Zm-8.16-14.34l-6.88-12.09,4.7-2.67,6.88,12.09-4.7,2.67Zm-8.16-14.34l-3.4-5.98h.04v-3.66h3.28v-1.44l4.78,8.41-4.7,2.67Zm-73.19-94.55l-4.15,2.19-6.49-12.3,4.15-2.19,6.49,12.3Zm1.21,2.29l6.49,12.3-4.15,2.19-6.49-12.3,4.15-2.19Zm-8.9-16.89l-4.15,2.19-6.49-12.3,4.15-2.19,6.48,12.3Zm-6.25,3.29l-4.78,2.52-6.49-12.3,4.78-2.52,6.49,12.3Zm1.21,2.29l6.49,12.3-4.78,2.52-6.49-12.3,4.78-2.52Zm7.7,14.6l6.49,12.3-4.78,2.52-6.49-12.3,4.78-2.52Zm7.69,14.6l6.49,12.3-4.78,2.52-6.49-12.3,4.78-2.52Zm2.09-1.1l4.15-2.19,6.49,12.3-4.15,2.19-6.49-12.3Zm-26.87-61.04l6.73,12.77-4.15,2.19-6.73-12.77,4.15-2.19Zm-6.25,3.29l6.73,12.77-4.78,2.52-6.73-12.77,4.78-2.52Zm40.43,88.27l-6.49-12.3,4.78-2.52,6.49,12.3-4.78,2.52Zm6.87-3.62l-6.49-12.3,4.15-2.19,6.48,12.3-4.15,2.19Zm-3.56,12.69l2.34,4.07-12.05,6.94-2.34-4.07,12.05-6.94Zm-15.48,6.18l-12.05,6.94-2.7-4.68,12.05-6.94,2.7,4.68Zm-72.42,35.44l12.51-7.2,2.7,4.68-12.51,7.2-2.7-4.68Zm16.39-.47l2.34,4.07-12.52,7.2-2.34-4.07,12.51-7.2Zm156.08,56.05l-7.14-12.55,4.08-2.32,7.14,12.55-4.08,2.32Zm6.14-3.49l-7.14-12.55,4.7-2.67,7.14,12.55-4.7,2.67Z"/><path class="cls-5" d="m2330.09,939.2v-5.52h36.36v-2.28h-36.36v-2.08h-2.09v2.08h-33.31v-2.08h-2.09v1.93c-7.27-2.89-15.17-2.84-22.41.14h-22.32v-2.08h-2.09v2.08h-33.31v-2.08h-2.09v2.08h-33.31v-2.08h-2.09v2.08h-33.31v-2.08h-2.09v2.08h-33.31v-2.08h-2.09v2.08h-33.31v-2.08h-2.09v2.08h-33.31v-2.08h-2.09v2.08h-33.31v-2.08h-2.09v2.08h-1.13c-1.77-.66-3.59-1.17-5.43-1.51l-201.91-434.75,4.43-4.18-7.61-47.2v-22.08l-12.18-15.23-7.86,53.34-.4-.73-880.03,469.33c-119.05.05-231.02.58-315.02,1.94l-317.05,5.14.07,4.59,317.05-5.14c81.96-1.33,190.51-1.87,306.33-1.94l-10.7,5.71c-111.81.1-216.32.64-295.77,1.93l-317.04,5.14.19,11.42,153.96-2.5v24.18h-27.03v13.45h-24.69v26.91h135.33v-26.91h-5.56v-13.45h-27.03v-25.01l112.07-1.82c288.49-4.68,907.09.43,1008.92,1.32l-13.59,26.39,3.43.28v12.29h-24.69v26.91h135.33v-26.91h-5.56v-13.45h-7.94l3.76-5.2,274.14-2.4-3.7,7.6h-8.21v13.45h-15.13v26.91h135.33v-26.91h-15.13v-13.45h-8.21l-4.04-8.31,216.57-1.9-4.96,10.2h-8.21v13.45h-24.69v26.91h135.33v-26.91h-5.56v-13.45h-8.21l-5.3-10.89,45.86-.4v-27.41l-61.45-.19c-2.34-2.54-4.89-4.63-7.58-6.28h30.59v5.52h2.09Zm-588.15-5.52h33.31v4.63l-33.31-.1v-4.52Zm-2.09,4.52l-20.39-.06.79-4.45h19.6v4.52Zm37.5-4.52h33.31v4.74l-33.31-.1v-4.63Zm35.4,0h33.31v4.85l-33.31-.1v-4.74Zm35.4,0h33.31v4.96l-33.31-.1v-4.85Zm35.4,0h32.17v5.06l-32.17-.1v-4.96Zm34.26,0h33.31v5.18l-33.31-.1v-5.07Zm35.4,0h15.78c-2.41,1.4-4.66,3.14-6.69,5.21l-9.1-.03v-5.18Zm20.64-2.28h-.62l-188.25-432.02.99-.94,200.13,430.9c-4.16-.1-8.32.59-12.25,2.05Zm27.82,2.28h31.68v5.43l-24.85-.08c-2.06-2.14-4.36-3.92-6.83-5.35Zm-221.48-429.79l1.26-1.19,186.8,428.69h-15.04v-2.08h-2.09v2.08h-33.31v-2.08h-2.09v2.08h-32.17v-2.08h-2.09v2.08h-33.31v-2.08h-2.09v2.08h-33.31v-2.08h-2.09v2.08h-33.31v-2.08h-2.09v2.08h-33.31v-2.08h-2.09v2.08h-19.2l50.68-285.6.49-1.06,8.38-140.85Zm-189.23,427.84c-3.15-.03-8.48-.08-15.83-.14l78.92-122.43-63.09,122.57Zm158.83-360.42l-.25-.39.34-.21-.09.6Zm7.62-51.7l-720.55,408.93c-4.02,0-8.05-.02-12.08-.03l733.1-412.1-.47,3.19Zm-.84,5.73l-.13.9-707.13,402.33c-1.08,0-2.15,0-3.23,0l710.49-403.22Zm-.98,6.64l-.35,2.37-673.7,394.32c-7.67-.02-15.35-.05-23.04-.07l697.09-396.62Zm-1.2,8.16l-.12.8-660.31,387.76c-1.14,0-2.28,0-3.42-.01l663.85-388.56Zm-.97,6.6l-.23,1.53-628.19,380.54c-7.33-.03-14.69-.05-22.07-.08l650.49-381.99Zm-1.09,7.4l-.1.7-614.84,374.02c-1.21,0-2.41,0-3.62-.01l618.57-374.71Zm-.97,6.57l-.6,4.08-586.62,364.18c-5.99-.03-11.99-.05-18.02-.07l605.24-368.18Zm-97.26,69.46l-476.57,298.85c-1.59,0-3.19-.01-4.78-.02l481.35-298.83Zm95.01-54.19l-.7,4.72-539.78,348.46c-7.47-.04-15-.07-22.57-.1l563.05-353.07Zm-95.97,71.66l-431.16,281.58c-1.66,0-3.32-.02-4.99-.02l436.15-281.56Zm93.61-55.68l-.31,2.08-485.94,335.38c-9.96-.05-20.04-.1-30.23-.16l516.48-337.3Zm-1.22,8.26l-.03.21-472.71,329.06c-1.44,0-2.87-.02-4.31-.02l477.05-329.24Zm-.95,6.41l-.32,2.2-439.52,320.84c-7.91-.05-15.92-.09-24.01-.14l463.86-322.9Zm-108.62,86.9l-319.03,236.2c-1.5,0-3-.02-4.51-.03l323.54-236.17Zm106.6-73.24l-.14.93-390.4,308.72c-9-.06-18.16-.11-27.48-.17l418.01-309.49Zm-123.36,104.2l-256.1,205.53c-1.26,0-2.51-.02-3.78-.02l259.87-205.51Zm113-84.83l-335.2,290.58c-8.68-.06-17.57-.12-26.66-.17l361.85-290.4Zm-102.53,94.93l-221.61,195.72c-1.37,0-2.75-.02-4.13-.03l225.74-195.69Zm109.32-90.46l-.33.65-297.77,285.76c-8.4-.06-17.06-.12-25.98-.18l324.08-286.23Zm-93.13,95.23l-193.96,191.26c-1.48-.01-2.96-.02-4.46-.03l198.43-191.23Zm43.65-35.99l-204.01,227.5c-8.63-.07-17.69-.13-27.14-.2l231.14-227.3Zm36.32-33.66l-3.64,7.08-208.18,254.31c-7.07-.06-14.56-.11-22.41-.17l234.23-261.21Zm-13.64,26.5l-4.03,7.84-161.46,227.31c-8.05-.07-17.01-.14-26.82-.22l192.32-234.93Zm46.53-185.51l-743.23,417.79c-1.05,0-2.1,0-3.15,0l746.52-418.71-.14.93Zm.98-6.64l-756.67,424.41c-7.62-.01-15.24-.03-22.85-.04l779.83-426.5-.31,2.13Zm1.15-7.79l-790.16,432.15c-1.36,0-2.71,0-4.07,0l794.38-433.15-.15,1.01Zm.98-6.67l-804.74,438.8c-8.05,0-16.08-.01-24.1-.02l829.75-444.98-.91,6.2Zm-813.15,443.38l-10.43,5.69c-8.16,0-16.31,0-24.43-.01l10.62-5.69c8.06,0,16.15,0,24.25.02Zm9.53,0c1.37,0,2.73,0,4.1,0l-10.4,5.69c-1.38,0-2.75,0-4.13,0l10.43-5.69Zm13.59.02c7.68.01,15.37.02,23.07.04l-10.13,5.68c-7.79-.01-15.56-.02-23.33-.03l10.39-5.69Zm32.38.05c1.06,0,2.12,0,3.17,0l-10.1,5.68c-1.07,0-2.13,0-3.2,0l10.13-5.68Zm12.46.02c4.05,0,8.11.02,12.16.03l-10,5.68c-4.09,0-8.17-.02-12.26-.02l10.1-5.68Zm21.37.05c1.08,0,2.17,0,3.25,0l-9.97,5.67c-1.09,0-2.18,0-3.27,0l10-5.67Zm12.45.03c7.77.02,15.53.04,23.27.07l-9.69,5.67c-7.84-.02-15.69-.04-23.56-.06l9.97-5.67Zm32.27.09c1.15,0,2.3,0,3.44.01l-9.65,5.67c-1.16,0-2.32,0-3.48-.01l9.68-5.67Zm12.42.04c7.46.02,14.89.05,22.31.08l-9.35,5.67c-7.51-.03-15.05-.05-22.61-.07l9.65-5.67Zm31.07.11c1.22,0,2.44,0,3.66.01l-9.31,5.66c-1.23,0-2.46,0-3.69-.01l9.35-5.66Zm12.39.05c6.08.02,12.14.05,18.18.07l-9.12,5.66c-6.1-.02-12.22-.05-18.37-.07l9.31-5.66Zm26.78.11c1.62,0,3.24.01,4.85.02l-9.03,5.66c-1.65,0-3.3-.01-4.94-.02l9.12-5.66Zm13.39.06c7.64.03,15.23.07,22.78.1l-8.76,5.66c-7.64-.03-15.32-.07-23.04-.1l9.02-5.66Zm31.14.14c1.69,0,3.39.02,5.07.02l-8.66,5.66c-1.72,0-3.45-.02-5.18-.02l8.76-5.66Zm13.37.06c10.31.05,20.52.1,30.61.15l-8.19,5.66c-10.25-.05-20.61-.1-31.07-.15l8.66-5.66Zm38.59.2c1.46,0,2.91.02,4.37.02l-8.12,5.65c-1.48,0-2.96-.02-4.44-.02l8.19-5.65Zm12.31.07c8.2.04,16.3.09,24.31.14l-7.75,5.65c-8.14-.05-16.37-.09-24.69-.13l8.12-5.65Zm32,.18c1.54,0,3.07.02,4.6.03l-7.64,5.65c-1.57,0-3.14-.02-4.71-.03l7.74-5.65Zm12.22.07c9.45.06,18.74.11,27.87.17l-7.15,5.65c-9.29-.06-18.75-.11-28.35-.17l7.64-5.65Zm35.18.21c1.29,0,2.58.02,3.86.02l-7.04,5.65c-1.32,0-2.64-.02-3.96-.02l7.15-5.65Zm11.1.07c9.22.06,18.26.12,27.08.18l-6.52,5.65c-9-.06-18.21-.12-27.6-.18l7.04-5.65Zm34,.22c1.42,0,2.83.02,4.23.03l-6.4,5.65c-1.45,0-2.89-.02-4.35-.03l6.52-5.65Zm11.08.07c9.05.06,17.85.12,26.39.18l-5.89,5.66c-8.71-.06-17.68-.12-26.89-.19l6.4-5.65Zm32.93.23c1.54.01,3.06.02,4.58.03l-5.75,5.66c-1.56-.01-3.14-.02-4.72-.03l5.89-5.66Zm11.04.08c9.63.07,18.87.14,27.68.2l-5.08,5.66c-9.04-.07-18.5-.14-28.36-.21l5.75-5.66Zm33.78.25c7.97.06,15.56.12,22.76.18l-4.63,5.66c-7.35-.06-15.1-.12-23.2-.18l5.07-5.66Zm28.63.22c9.95.08,19.08.15,27.31.22l-4.02,5.67c-8.46-.07-17.79-.14-27.93-.22l4.63-5.66Zm32.88.27c6.58.05,12.52.1,17.76.15l-3.65,5.67c-5.41-.05-11.46-.1-18.13-.15l4.02-5.66Zm3.24-4.57l141.15-198.71-17.83,34.63-105.86,164.23c-5.1-.04-10.93-.09-17.46-.15Zm164.29-168.46l-36.83,168.45h-41.93l78.76-168.45Zm49.01-298.58l-1.98,13.41-840.24,450.6c-9.31,0-18.58,0-27.82,0l870.04-464.01Zm-878.65,468.6c5.74,0,11.48,0,17.25,0,3.54,0,7.08,0,10.63,0l-10.62,5.7h-.02c-9.35,0-18.66,0-27.93,0l10.69-5.7Zm681.63,8.86l3.65-5.67c7.17.06,12.69.11,16.42.14l-2.92,5.67c-4.24-.04-10-.09-17.15-.15Zm66.24-3.96l1.96-4.19h42.5l-.94,4.32-43.51-.14Zm400.67,1.25v-5.44h33.31v5.52h2.09v-5.52h33.31v5.52h2.09v-5.52h33.31v5.52h2.09v-5.52h33.31v5.52h2.09v-5.52h33.31v5.52h2.09v-5.52h33.31v5.52h2.09v-5.52h17.84c-2.64,1.61-5.15,3.66-7.45,6.13l-222.8-.7Z"/><polygon class="cls-8" points="1344.35 998.74 1344.35 989.24 1326.65 989.24 1326.65 802.16 1307 802.16 1307 772.48 1211.66 772.48 1211.66 802.16 1209.71 802.16 1209.71 989.24 1175.02 989.24 1175.02 998.74 1167.91 998.74 1167.91 1024.46 1354.87 1024.46 1354.87 998.74 1344.35 998.74"/><path class="cls-8" d="m719.29,595.55c0-2.36-1.92-4.28-4.28-4.28h-12.21v-9.12h.75v-2.29h-2.06v-4.29h2.06v-2.29h0s-2.06,0-2.06,0h-22.37v2.29h1.51v1.87h-8.29v-42.57l-4.16-11.7,7.89-8.64h1.21v-2.82h-1.21v-2.94h1.21v-.93h-3.96l-2.37-5.77h.82v-2.54h0s-1.86,0-1.86,0h-16.92v-14.28h-2.14v-55.61h11.03v-4.78h-1.67v-8.62h0v-3.63h1.67v-3.21h1.78v-4.78h-1.78v-2.39h-11.03v-222.78h1.31v-37.85c.46.09.93.14,1.41.14,3.88,0,7.02-3.14,7.02-7.02s-3.14-7.02-7.02-7.02c-.48,0-.96.05-1.41.14v-6.01h1.74v-2.91h-.41l-1.63-2.23v-12.23h-.63v11.38l-7.22-9.87v-4.47h0s-.83,0-.83,0v-38.42h-2.26v38.42h-.83v4.47l-7.73,10.56v-12.07h-.63v12.92l-.46.63s-.02,0-.03,0c-.51,0-.92.41-.92.92h-.13v2.91h1.54v6.01c-.46-.09-.93-.14-1.41-.14-3.88,0-7.02,3.14-7.02,7.02s3.14,7.02,7.02,7.02c.48,0,.96-.05,1.41-.14v37.85h1.31v222.78h-11.03v2.39h-1.78v4.78h1.78v3.21h1.67v3.63h0v8.62h-1.67v4.78h11.03v55.61h-2.14v14.28h-18.78v2.54h.82l-2.37,5.77h-3.47v.93h.94v2.94h-.94v.28h-.48v2.54h1.21l7.89,8.64-4.16,11.7v26.79h-3.12c-.78,0-1.55-.08-2.31-.18v-61.97h.97v-3.39h-19.13v3.39h0s.97,0,.97,0v20.34c-.08,0-.73,0-1.69.2-.17.03-.38.09-.57.14-.16.04-.31.07-.49.12-.26.08-.54.18-.81.28-.14.05-.26.08-.4.14-.37.15-.76.34-1.14.55-.06.03-.11.05-.16.08-.42.23-.84.51-1.26.81-.03.02-.06.04-.09.06-.45.34-.9.72-1.34,1.15-2.24,2.23-3.64,5.31-4.21,9.17-.19,1.29-.28,2.66-.28,4.12,0,.99.15,2,.4,3-.01.06,0,.13-.02.19-.24,1.42-.38,2.92-.38,4.56,0,1.03.17,2.06.44,3.1.09.37.24.73.36,1.1.22.66.47,1.33.78,1.99.21.45.44.89.68,1.33.32.58.67,1.15,1.05,1.72.31.47.61.94.95,1.41.07.09.12.19.19.28,0,0,0,.02,0,.03.07.09.15.18.22.27.36.47.73.93,1.12,1.39.13.15.26.31.39.46.04.05.09.1.14.15.17.19.35.38.52.58.23.25.45.51.68.76.06.06.11.12.17.18.04.04.07.08.11.11,0,0,.01.02.02.02.52.54,1.06,1.08,1.6,1.61.04.04.08.09.13.13,0,0,0,0,0,.01.16.15.32.3.48.45.42.4.84.79,1.27,1.18.04.03.07.06.11.09.14.12.27.24.41.36.16.14.33.29.49.43.04.03.07.06.11.09v19.37h-2.98l-5.81,8.23h-11.27c-2.36,0-4.28,1.92-4.28,4.28h-8.01v4.68h1.41l2.5,6.85h-.39v2.11h1.16l.93,2.54,1.47,4.03h0l1.67,4.58h-.09v2.11h.86l2.56,7.02.91,2.5h-.35v2.11h0s1.12,0,1.12,0l2.06,5.64h-.36v2.11h1.12l2.79,7.65,35.59,10.09v20.26h-1.39v3.87h1.39v334.54h60.77v-327.84h.02v-6.7h1.42v-3.87h-1.44v-20.26h0s8.17-2.32,8.17-2.32l26.41-7.48s.03,0,.05-.01c.36-.08.61-.14.75-.19,0,0,0,0,0,0,.14-.05.2-.08.2-.08l2.79-7.65h1.12v-2.11h-.36l2.06-5.64h1.12v-2.11h-.35l1.73-4.74,1.09-2.98.65-1.79h.86v-2.11h-.09l.07-.19,1.6-4.39h0l.56-1.55,1.83-5.01h1.16v-2.11h-.39l2.5-6.85h1.41v-4.68h-8.01Zm-74.68-486.25l5,6.84c-.1-.01-.19-.06-.3-.06-1.4,0-2.54,1.14-2.54,2.54,0,.1.05.19.06.28h-.11c.03-.09.06-.18.06-.28,0-.51-.41-.92-.92-.92s-.92.41-.92.92c0,.1.03.19.06.28h-.98v-10.42l.6.82Zm-4.51,9.6h-3.83c.01-.1.06-.18.06-.28,0-.27-.06-.53-.16-.77-.3-.71-1-1.21-1.82-1.21-.09,0-.17.04-.26.05l1.7-2.32,4.32-5.9v10.42Zm-31.32,390.79h1.04l-.82,2.01h-.22v-2.01Zm66.14,2.01l-.82-2.01h1.26v2.01h-.43Zm-91.91,15.26s.04-.03.05-.06v2.61c-.32.21-.64.43-.97.68,0,0,0,0,0,0v-1.67c.17-.33.34-.66.52-.95.13-.2.25-.43.39-.61Zm1.63-1.62c.12-.09.24-.15.35-.23v3.37c-.31.13-.64.29-.97.46v-3.07c.05-.05.1-.12.16-.17.15-.13.3-.25.46-.36Zm3.82-1.58c.21-.02.4-.04.49-.04v3.87h0s0,0,0,0h0s0,0,0,0h0c-.06,0-.45.01-1.04.1h0v-3.83c.1-.02.22-.05.31-.06.08-.01.18-.03.25-.04Zm-.36,33.84c-.07-.07-.13-.13-.2-.2v-2.41c.32.29.64.57.97.85v2.49c-.25-.24-.53-.49-.77-.73Zm-6.72-9.09c-.11-.26-.19-.5-.28-.75.52.68,1.07,1.35,1.64,2.02.11.12.19.25.3.37,0,0,0,0,.01.01v1.48s-.03-.04-.04-.06c-.54-.81-.98-1.61-1.36-2.38-.11-.24-.18-.46-.28-.69Zm4.59-24.01c.34-.17.66-.28.97-.38v3.75c-.3.07-.62.16-.97.26h0s0-3.64,0-3.64Zm.23,28.91c.24.23.49.46.73.69v2.29c-.34-.36-.66-.71-.97-1.07v-2.14s.02.02.03.03c.07.06.14.13.2.19Zm22.04,15.97c-.33,0-.64-.05-.97-.07v-3.83c.32.02.64.03.97.04v3.87Zm-1.94-.15c-.05,0-.11,0-.16-.01v-3.84c.05,0,.11.01.16.02v3.83Zm-21.31-15.01s-.06-.06-.08-.1c-.33-.4-.59-.79-.89-1.18v-1.73c.32.34.64.67.97,1.01v2.01Zm3.43-4.07c-.6-.59-1.16-1.17-1.69-1.74-.37-.39-.73-.79-1.07-1.17-.51-.59-.96-1.16-1.4-1.73-.27-.35-.54-.7-.78-1.04-.41-.59-.77-1.17-1.1-1.74-.17-.3-.36-.6-.51-.9-.3-.59-.53-1.16-.74-1.73-.07-.19-.15-.38-.21-.56.13-.56.28-1.08.44-1.57.05-.15.09-.33.15-.47.14-.37.3-.71.46-1.03.19-.39.39-.76.6-1.08.16-.25.32-.5.49-.72.12-.15.24-.28.36-.42.24-.27.48-.56.73-.78.23-.21.47-.37.7-.54.21-.15.42-.29.63-.41.04-.02.08-.05.12-.07.21-.11.41-.22.61-.31.04-.02.08-.03.12-.05.21-.09.42-.18.62-.24.18-.06.35-.12.51-.16.25-.06.48-.11.68-.14.08-.01.19-.04.26-.05.24-.03.44-.04.54-.04v19.19c-.17-.17-.36-.33-.53-.5Zm110.78,29.69h-6.83v-4.29h6.83v4.29Zm-9.12-4.29v4.29h-7.16v-4.29h7.16Zm-78.52-6.16h-.42v-3.87h.42v3.87Zm-1.39,0h-.97v-3.87h.97v3.87Zm-4.04,3.74c.74.08,1.49.13,2.25.14.01,0,.03,0,.04,0h3.14v9.76h-5.43v-9.9Z"/><path class="cls-8" d="m1182.93,767.52c-22.44-43.38-55.53-60.06-119.25-69.21-24.33-3.49-48.89-5.13-73.47-5.18-17.04-.04-38.06-.05-50.83.06-12.77-.11-33.8-.1-50.83-.06-24.58.05-49.14,1.69-73.47,5.18-63.72,9.15-96.81,25.82-119.25,69.21-33.91,65.56-29.14,252.78-29.14,252.78h545.39s4.77-187.22-29.14-252.78Z"/><rect class="cls-8" x="2463.48" y="795.95" width="74.02" height="228.51"/><rect class="cls-8" x="2736.21" y="795.08" width="96.39" height="231.56"/><path class="cls-5" d="m2834.91,1015.75c-2.07-43.39-37.74-77.95-81.61-77.95s-79.53,34.56-81.61,77.95h163.22Z"/><path class="cls-8" d="m310.43,892.58v-3.92h-119.86v3.92h3.31v2.35h-3.31v126.6h119.86v-126.6h-1.38v-2.35h1.38Zm-48.12,0v2.35h-27.49v-2.35h27.49Zm-59.58,0h23.24v2.35h-23.24v-2.35Zm97.46,2.35h-29.04v-2.35h29.04v2.35Z"/><path class="cls-9" d="m389.45,1015.75c-2.07-43.39-37.74-77.95-81.61-77.95s-79.53,34.56-81.61,77.95h163.22Z"/><path class="cls-9" d="m904.63,1015.75c-2.07-43.39-37.74-77.95-81.61-77.95s-79.53,34.56-81.61,77.95h163.22Z"/><path class="cls-8" d="m2412.61,926.75h2.27v-9.14h-2.27v-5.95h-5.07v-50.39h-28.89v-276.6h28.89v-304.45h-.4v-.96h-2.78v.96h-4.3v-.96h-2.78v.96h-4.39v-.96h-2.78v.96h-4.3v-.96h-2.78v.96h-4.39v-.96h-2.78v.96h-4.3v-.96h-2.78v.96h-4.39v-.96h-2.78v.96h-4.3v-.96h-2.78v.96h-4.39v-.96h-2.78v.96h-4.3v-.96h-2.78v.96h-4.39v-.96h-2.78v.96h-4.3v-.96h-2.78v.96h-4.39v-.96h-2.78v.96h-4.3v-.96h-2.78v.96h-4.39v-.96h-2.78v.96h-4.3v-.96h-2.78v.96h-4.39v-.96h-2.78v.96h-4.3v-.96h-2.78v.96h-4.99v-.96h-2.78v.96h-.76v284.52h-2.94v-1.75h-2.78v1.75h-4.71v-1.75h-2.78v1.75h-3.98v-1.75h-2.78v1.75h-4.63v-1.75h-2.78v1.75h-3.71v-272.61h-.35v-1.7h-2.78v1.7h-3.1v-1.7h-2.78v1.7h-4.3v-1.7h-2.78v1.7h-4.39v-1.7h-2.78v1.7h-4.3v-1.7h-2.78v1.7h-4.39v-1.7h-2.78v1.7h-4.3v-1.7h-2.78v1.7h-4.39v-1.7h-2.78v1.7h-4.3v-1.7h-2.78v1.7h-4.39v-1.7h-2.78v1.7h-4.3v-1.7h-2.78v1.7h-4.39v-1.7h-2.52v-10.2h-4.56v-.96h-2.78v.96h-3.1v-.96h-2.78v.96h-4.3v-.96h-2.78v.96h-4.39v-.96h-2.78v.96h-4.3v-.96h-2.78v.96h-4.39v-.96h-2.78v.96h-4.3v-.96h-2.78v.96h-4.39v-.96h-2.78v.96h-4.3v-.96h-2.78v.96h-4.39v-.96h-2.78v.96h-4.3v-.96h-2.78v.96h-5.94v304.13h-1.23v.32h-11.47v-.32h-2.78v.32h-11.47v-.32h-2.78v.32h-.71v-304.45h-3.59v-.96h-2.78v.96h-4.39v-.96h-2.78v.96h-4.3v-.96h-2.78v.96h-4.99v-.96h-2.78v.96h-3.7v-.96h-2.78v.96h-4.99v-.96h-2.78v.96h-3.7v-.96h-2.78v.96h-4.99v-.96h-2.78v.96h-3.7v-.96h-2.78v.96h-4.99v-.96h-2.78v.96h-3.7v-.96h-2.78v.96h-4.99v-.96h-2.78v.96h-3.7v-.96h-2.78v.96h-4.99v-.96h-2.78v.96h-3.7v-.96h-2.78v.96h-4.99v-.96h-2.78v.96h-3.7v-.96h-2.78v.96h-4.99v-.96h-2.78v.96h-3.7v-.96h-2.78v.96h-4.99v-.96h-2.78v.96h-3.7v-.96h-2.78v.96h-4.99v-.96h-2.78v.96h-3.7v-.96h-2.78v.96h-2.7v581.05h-6.91v50.39h-5.07v5.95h-2.27v9.14h2.27v7.44h-2.27v9.14h2.27v7.44h-2.27v9.14h2.27v5.95h5.07v51.03h260.22v-2.87h.06v2.87h269.78v-51.03h5.07v-5.95h2.27v-9.14h-2.27v-7.44h2.27v-9.14h-2.27v-7.44Zm-375.21-307.64h-.22v7.65h.22v6.38h-.22v7.65h.22v6.38h-.22v7.65h.22v6.38h-.22v7.65h.22v6.38h-.22v7.65h.22v6.38h-.22v7.65h.22v6.38h-.22v7.65h.22v6.38h-.22v7.65h.22v6.38h-.22v7.65h.22v6.38h-.22v7.65h.22v6.38h-.22v7.65h.22v7.65h-.22v7.65h.22v7.65h-.22v7.65h.22v7.65h-.22v7.65h.22v7.65h-.22v7.65h.22v7.65h-.22v7.65h.22v7.65h-.22v7.65h.22v2.34h-19.34v-252.68h19.13v4.15h.22v6.38Zm100.3,368.13h.06v5.33h-.06v-5.33Zm0,8.07h.06v2.67h-.06v-2.67Zm.06-24.12h-.06v-5.31h.06v5.31Z"/><polygon class="cls-8" points="1592.47 951.91 1592.47 947.69 1592.47 940.1 1592.47 934.96 1592.47 927.38 1592.47 922.26 1592.47 914.66 1592.47 909.56 1592.47 901.96 1592.47 896.83 1592.47 889.23 1592.47 884.99 1592.47 877.39 1592.47 873.89 1592.47 866.29 1592.47 861.15 1592.47 853.56 1592.47 848.45 1592.47 840.85 1592.47 835.72 1592.47 828.13 1592.47 823.03 1592.47 815.43 1592.47 810.31 1592.47 802.71 1592.47 797.59 1592.47 789.99 1592.47 784.88 1592.47 777.28 1592.47 772.16 1592.47 764.57 1592.47 759.45 1592.47 751.85 1592.47 746.74 1592.47 739.13 1592.47 734.02 1592.47 726.42 1592.47 721.3 1592.47 713.71 1592.47 708.59 1592.47 700.99 1592.47 695.87 1592.47 688.28 1592.47 683.16 1592.47 675.56 1592.47 670.45 1592.47 662.85 1592.47 657.73 1592.47 650.13 1592.47 645.02 1592.47 637.43 1592.47 632 1579.75 632 1579.75 626.77 1580.58 626.77 1580.58 614.38 1578.33 614.38 1578.33 606.35 1579.1 606.35 1579.1 605.12 1543.83 605.12 1543.83 603.29 1538.58 603.29 1538.58 595.91 1538.37 595.91 1536.92 593.24 1536.92 566.09 1535.76 561.87 1535.76 554.31 1534.73 554.31 1534.73 561.86 1533.58 566.09 1533.58 593.24 1532.13 595.91 1531.92 595.91 1531.92 603.29 1526.66 603.29 1526.66 605.12 1491.4 605.12 1491.4 606.35 1492.17 606.35 1492.17 614.38 1489.92 614.38 1489.92 626.66 1489.92 626.77 1490.74 626.77 1490.74 632 1478.03 632 1478.03 637.43 1478.03 645.02 1478.03 650.13 1478.03 657.73 1478.03 662.85 1478.03 670.45 1478.03 675.56 1478.03 683.16 1478.03 688.28 1478.03 695.87 1478.03 700.99 1478.03 708.59 1478.03 713.71 1478.03 721.3 1478.03 726.42 1478.03 734.02 1478.03 739.13 1478.03 746.74 1478.03 751.85 1478.03 759.45 1478.03 764.57 1478.03 772.16 1478.03 777.28 1478.03 784.88 1478.03 789.99 1478.03 797.59 1478.03 802.71 1478.03 810.31 1478.03 815.43 1478.03 823.03 1478.03 828.13 1478.03 835.72 1478.03 840.85 1478.03 848.45 1478.03 853.56 1478.03 861.15 1478.03 866.29 1478.03 873.89 1478.03 877.39 1478.03 884.99 1478.03 889.23 1478.03 896.83 1478.03 901.96 1478.03 909.56 1478.03 914.66 1478.03 922.26 1478.03 927.38 1478.03 934.96 1478.03 940.1 1478.03 947.69 1478.03 951.91 1436.82 951.91 1436.82 951.91 1436.82 963.31 1436.82 1017.31 1444.44 1017.31 1444.44 963.31 1444.45 963.31 1444.44 1017.31 1449.46 1017.31 1449.46 963.31 1465.9 963.31 1465.89 1016.48 1469.71 1016.48 1473.52 1016.48 1478.54 1016.48 1489.93 1016.48 1501.84 1016.48 1509.32 1016.48 1509.47 1016.48 1514.34 1016.48 1517.81 1016.48 1528.35 1016.48 1529.99 1016.48 1540.51 1016.48 1542.15 1016.48 1552.68 1016.48 1561.31 1016.48 1568.94 1016.48 1573.96 1016.48 1580.57 1016.48 1596.97 1016.48 1600.79 1016.48 1604.6 1016.48 1604.6 963.31 1604.6 963.31 1604.6 1016.48 1609.61 1016.48 1609.61 963.31 1626.05 963.31 1626.05 1016.48 1633.68 1016.48 1633.68 963.31 1633.68 951.97 1633.68 951.91 1592.47 951.91"/><polygon class="cls-4" points="2309.12 1005.72 2200.25 1009.2 2227.61 681.87 2309.12 1005.72"/><path class="cls-1" d="m2305.68,966.33v-2.19h-.96v-.64h-1.72v-66.44h0v-80.55h1.33v-6.68h-1.33v-21.35h.04v-3.19h.84v-4.3h-.88v-2.14h.04v-3.2h.84v-4.3h-.41v-1.56h-.37l-12.42-52.39h-.55v-1.95h.97v-1.58h-.97v-1.27h.39c.98,0,1.78-.8,1.78-1.78v-.2c0-.98-.8-1.78-1.78-1.78h-.96l-.38-3.23-.39-3.31h1.01v-1.58h-.83c.09-.05.14-.14.22-.2.1-.08.18-.14.26-.23.24-.27.41-.6.41-.99,0-.89-.72-1.61-1.61-1.61s-1.61.72-1.61,1.61c0,.39.17.71.41.99.08.1.16.16.26.23.08.06.13.15.22.2h-.83v1.58h1.01l-.23,1.93-.55,4.6h-.96c-.98,0-1.78.8-1.78,1.78v.2c0,.98.8,1.78,1.78,1.78h.39v1.27h-.97v1.58h.97v1.95h-.55l-12.42,52.39h-.37v1.31l-3.91-14.95-11.48-43.87-1.08-4.22h1.46v-2.4h-3.01v-5.1h3.01v-2.4h0s-3.01,0-3.01,0v-10.65h-.55v-9.89h11.17v-6.84h-10.93v-1.46h-1.24v5.36h.24v12.83h-.55v10.65h-26.12v-8.7h.15v-3.91h2.03v-2.4h-.94v-5.18h.94v-1.48h-45.94v1.48h.94v5.18h-.94v2.4h0s2.03,0,2.03,0v3.91h.15v8.7h-26.12v-10.65h-.55v-9.89h11.17v-6.84h-10.93v-1.46h-1.24v5.36h.24v12.83h-.55v10.65h-3.01v2.4h3.01v5.1h-3.01v2.4h1.46l-1.08,4.22-1.41,5.38-14.02,53.59v-3.08h-8.68v4.92h.7v246.21h157.34v-17.74h.27c2.68,0,5.05-1.36,6.45-3.43.84-1.24,1.33-2.74,1.33-4.35v-.8h1.48v-7.78s0,0,0,0c.52-.04.99-.27,1.32-.63.03-.03.05-.08.08-.12.12-.15.24-.31.32-.49.09-.21.13-.44.14-.68,0-.03.02-.05.02-.08v-4.72h2.81v-6.46h1.72v-1h.96v-2.19h-.96v-2.5h.96Zm-141.07-265.77h4.45v5.1h-4.45v-5.1Zm15.71,5.1h-4.46v-5.1h4.46v5.1Zm-5.63,0h-4.46v-5.1h4.46v5.1Zm73.16,0h-4.46v-5.1h4.46v5.1Zm-5.63,0h-4.46v-5.1h4.46v5.1Zm-5.63,0h-4.46v-5.1h4.46v5.1Zm16.54,0h-4.11v-5.1h4.11v5.1Zm-22.17-5.1v5.1h-3.95v-2.93h.02v-2.17h3.94Zm-45.52,2.17v2.93h-3.95v-5.1h3.94v2.17h.02Zm-22.01,2.93h-4.11v-5.1h4.11v5.1Zm63.93-22.51h-2.7v-5.18h2.7v5.18Zm-3.6,0h-2.7v-5.18h2.7v5.18Zm-3.6,0h-2.7v-5.18h2.7v5.18Zm-3.6,0h-2.7v-5.18h2.7v5.18Zm-3.6,0h-2.7v-5.18h2.7v5.18Zm-3.6,0h-2.7v-5.18h2.7v5.18Zm-3.6-5.18v5.18h-2.7v-5.18h2.7Zm-3.6,5.18h-2.7v-5.18h2.7v5.18Zm-3.6,0h-2.7v-5.18h2.7v5.18Zm-3.6,0h-2.7v-5.18h2.7v5.18Zm-3.6,0h-2.7v-5.18h2.7v5.18Zm-6.29-5.18h2.7v5.18h-2.7v-5.18Zm-46.39,95.97v-.85h.22l-.22.85Z"/><g><path class="cls-2" d="m2648.54,642.03c.02-1.85.59-2.45.59-2.45l-.34-.45c-.08.07-.75.78-.77,2.89-.01,1.12,0,2.88,0,2.88h.52s-.01-1.76,0-2.87Z"/><path class="cls-2" d="m2645.97,642.02c-.02-2.12-.7-2.82-.77-2.89l-.34.45s.57.6.59,2.45c0,.28,0,.6,0,.92,0,.96,0,1.95,0,1.95h0s.52,0,.52,0c0,0,.01-1.76,0-2.88Z"/><path class="cls-1" d="m2777.31,971.63v-85.36h2.09v-6.48h-2.09l-8.39-6.16h2.48l-7.86-5.77-18.08-9.65-18.08,9.65-7.86,5.77h2.48l-8.39,6.16h-2.09v6.48h2.09v5.27h-24.9v-110.38h1.47v-1.43h0s-1.21,0-1.21,0l-4.71-5.1h-14.14v-30.4h-1.08v-6.87h-5.84v-4.03h2.64v-1.68h-6.05l-4.01-3.1c-.87-.97-.64-2.49.47-3.16l2.99-1.81h2.05v-1.68h1v-1.68h-6.49v-.28h2.64v-1.68h.8v-1.68h-3.44v-3h.62v-1.68h-.62v-9.22h.62v-1.68h-.62v-9.22h.62v-1.68h-.62v-9.22h.62v-1.68h-.62v-11.14h.87v-3.28h2.42v-1.68h0s-1,0-1,0v-1.96h2.77v-1.68h-8.87v-1.58h-.83v-2.45h1.04v-1.68h-.62v-.58h-.33v-1.04h.33v-1.04h0s-.33,0-.33,0v-1.04h.33v-1.04h-.33v-1.04h.33v-1.04h-.33v-1.04h.33v-1.04h-.33v-.91h-.26v-.06c0-.44,0-.96,0-1.37.02-1.45.59-1.93.59-1.93l-.34-.35c-.08.06-.75.61-.77,2.28,0,.39,0,.88,0,1.3,0,.04,0,.09,0,.13h-.26v.91h-2.42v-39.9h.52v-11.97h.96v-1.39h-.96v-.89h-.89v-1.85c.12-.04.19-.14.29-.22.08-.06.16-.09.22-.16.19-.22.33-.48.33-.8s-.14-.58-.33-.8c-.06-.07-.14-.11-.22-.16-.1-.07-.17-.18-.29-.22v-1.05h-.82v1.05c-.12.04-.19.14-.29.22-.08.06-.16.09-.22.16-.19.22-.33.48-.33.8s.14.58.33.8c.06.07.14.11.22.16.1.07.17.18.29.22v1.85h-.89v.89h-.96v1.39h.96v11.97h.52v39.9h-2.42v-.91h-.22c0-.45,0-1,0-1.44-.02-1.67-.7-2.22-.77-2.28l-.34.35s.57.48.59,1.93c0,.43,0,.98,0,1.43h-.3v.91h-.33v1.04h.33v1.04h-.33v1.04h.33v1.04h-.33v1.04h0s.33,0,.33,0v1.04h-.33v1.04h.33v1.04h-.33v.58h-.62v1.68h1.04v2.45h-.83v1.58h-8.87v1.68h2.77v1.96h-1v1.68h2.42v3.28h.87v11.14h-.62v1.68h.62v9.22h-.62v1.68h.62v9.22h-.62v1.68h.62v9.22h-.62v1.68h.62v3h-3.44v1.68h.8v1.68h2.64v.28h-6.49v1.68h1v1.68h2.05l2.99,1.81c.56.34.89.88.98,1.47.09.58-.07,1.21-.51,1.69l-4.01,3.1h-6.05v1.68h2.64v4.03h-5.84v6.87h-1.08v147.3h-160.85v-5.27h2.09v-6.48h-2.09l-8.39-6.16h2.48l-7.86-5.77-18.08-9.65-18.08,9.65-7.86,5.77h2.48l-8.39,6.16h-2.09v6.48h2.09v85.36h-2.41v45.9h382.81v-45.9h-2.41Zm-131.33-319.45h.24v1.04h-.24v-1.04Zm0-4.15h.24v1.04h-.24v-1.04Zm2.06,1.04h-.27v-1.04h.27v1.04Zm0,4.15h-.27v-1.04h.27v1.04Zm-.27-2.08v-1.04h.27v1.04h-.27Zm-1.56-1.04v1.04h-.24v-1.04h.24Zm3.97,3.11h-1.58v-1.04h1.58v1.04Zm0-2.08h-1.58v-1.04h1.58v1.04Zm0-2.08h-1.58v-1.04h1.58v1.04Zm0-2.08h-1.58v-1.04h1.58v1.04Zm-2.15-1.04v1.04h-.27v-1.04h.27Zm-1.83,1.04h-.24v-1.04h.24v1.04Zm-2.42-1.04h1.61v1.04h-1.61v-1.04Zm0,2.08h1.61v1.04h-1.61v-1.04Zm0,2.08h1.61v1.04h-1.61v-1.04Zm0,2.08h1.61v1.04h-1.61v-1.04Z"/></g><path class="cls-5" d="m2614.79,996.66c-5.24,0-9.99,2.09-13.47,5.47-3.49-3.38-8.23-5.47-13.46-5.47s-9.84,2-13.29,5.32c-3.48-3.31-8.15-5.32-13.3-5.32-10.4,0-18.88,8.2-19.36,18.54h92.25c-.51-10.34-8.97-18.54-19.37-18.54Z"/><path class="cls-1" d="m2032.53,1022.73c-1.4-29.38-25.56-52.78-55.26-52.78s-53.85,23.4-55.26,52.78h110.53Z"/><rect class="cls-8" x="1644.65" y="803.85" width="74.02" height="216.44"/><path class="cls-1" d="m1869.77,1015.75c-2.07-43.39-37.74-77.95-81.61-77.95s-79.53,34.56-81.61,77.95h163.22Z"/><path class="cls-9" d="m1877.79,657.74h-27.91v-84.69h-38.35v13.42h-58.97l-3.64-36.3h13.02v-5.91h-13.62l-.87-8.68-7.06.12,22.62,225.49h-.06v1.49h.2l8.56,85.31-55.05,172.82h8.74l48.75-148.46,8.82,87.95v.53h.05l2.4,23.92,6.26-.07v.07h10.04v36.06h93.32v-44.1h15.26v44.1h6.84v-44.1h4.75v-318.95h-44.1Zm-86.1,318.96h0s0,0,0,0h0Z"/><path class="cls-9" d="m2584.66,856.84c-.1,0-.2-.01-.31-.02-.05,0-.1,0-.15,0-.14,0-.27.02-.4.02-.28,0-.55.02-.83.04-.2.02-.4.05-.61.08-.22.03-.43.06-.65.1-.27.05-.53.11-.79.18-.19.05-.38.09-.57.15-.15.05-.31.1-.46.15-.23.07-.46.14-.69.22-7.11,2.59-298.3,122.43-298.3,122.43l-4.05,20.78,1.08-.31-3.17,15.14h24.54l-2.87-16.94-.17-.98-.12-.73-.29-1.71,9.83-2.87v22.98h16.44v.25h17.45v-.25h209.59v-24.29l11.35,15.24h-4.81l-.93,2.37-2.16,6.68h24.69l-2.16-6.68-1.04-2.37h-5.51l29.16-134.62s0-.03,0-.04h0c.05-.46.07-.92.07-1.39,0-7.37-5.86-13.36-13.17-13.6Z"/><polygon class="cls-1" points="1563.78 896.78 1563.78 896.78 1523.62 865.82 1523.62 865.81 1483.46 834.85 1443.53 865.63 1403.97 835.13 1364.37 865.66 1324.48 834.9 1284.31 865.87 1284.31 865.88 1267.3 878.99 1261.22 883.68 1229.78 859.44 1199.84 882.53 1169.9 859.44 1140.18 882.35 1110.42 859.4 1080.48 882.49 1050.53 859.4 1020.05 882.91 989.56 859.4 959.62 882.49 949.52 874.7 929.68 859.4 929.68 859.4 929.68 859.4 906.43 877.33 898.86 883.16 869.8 860.76 829.64 891.73 829.64 891.73 829.64 918 831.07 919.09 831.06 919.09 838.45 924.77 838.46 924.77 855.25 937.65 855.38 937.74 855.38 986.1 852.29 986.1 852.29 1010.98 850.48 1010.98 850.48 1018.89 889.13 1018.89 889.13 1010.98 887.31 1010.98 887.31 986.1 884.23 986.1 884.23 977.74 975.82 977.74 975.82 985.81 972.74 985.81 972.74 1010.69 970.92 1010.69 970.92 1018.59 1009.57 1018.59 1009.57 1010.69 1007.76 1010.69 1007.76 985.81 1004.67 985.81 1004.67 977.74 1095.59 977.74 1095.59 985.81 1092.5 985.81 1092.5 1010.69 1090.69 1010.69 1090.69 1018.59 1129.34 1018.59 1129.34 1010.69 1127.53 1010.69 1127.53 985.81 1124.44 985.81 1124.44 977.74 1215.36 977.74 1215.36 985.81 1212.27 985.81 1212.27 1010.69 1210.46 1010.69 1210.46 1018.59 1249.11 1018.59 1249.11 1010.69 1247.29 1010.69 1247.29 985.81 1247.29 985.81 1244.21 985.81 1244.21 977.74 1269.9 977.74 1269.9 985.81 1266.81 985.81 1266.81 1010.69 1264.99 1010.69 1264.99 1018.59 1303.65 1018.59 1303.65 1010.69 1301.83 1010.69 1301.83 985.81 1298.74 985.81 1298.74 977.74 1349.39 977.74 1349.39 985.81 1346.29 985.81 1346.29 1010.69 1344.48 1010.69 1344.48 1018.59 1383.13 1018.59 1383.13 1010.69 1381.31 1010.69 1381.31 985.81 1378.23 985.81 1378.23 977.74 1390.06 977.74 1390.06 985.81 1387.66 985.81 1387.66 1010.69 1385.85 1010.69 1385.85 1018.59 1424.5 1018.59 1424.5 1010.69 1422.69 1010.69 1422.69 985.81 1418.91 985.81 1418.91 977.74 1430.22 977.74 1430.22 985.81 1427.95 985.81 1427.95 1010.69 1426.13 1010.69 1426.13 1018.59 1464.79 1018.59 1464.79 1010.69 1462.97 1010.69 1462.97 985.81 1459.07 985.81 1459.07 977.74 1509.19 977.74 1509.19 985.81 1506.34 985.81 1506.34 1010.69 1504.53 1010.69 1504.53 1010.69 1504.53 1018.59 1504.53 1018.59 1543.18 1018.59 1543.18 1010.69 1541.36 1010.69 1541.36 985.81 1538.04 985.81 1538.04 942.8 1538.16 942.7 1554.96 929.82 1554.96 929.82 1562.36 924.15 1562.35 924.15 1563.78 923.05 1563.78 896.78"/><polygon class="cls-1" points="768.01 993.28 768.01 988.75 768.01 981.95 768.01 974.31 768.01 957.54 768.01 836.07 758.3 836.07 758.3 830.9 744.15 830.9 744.15 830.9 744.15 836.07 730.04 836.07 730.04 827.42 730.04 824.19 730.04 823.69 731.77 823.69 731.77 820.46 722.96 809.18 722.96 809.18 722.96 809.18 714.16 820.46 714.16 823.69 715.89 823.69 715.89 824.19 715.89 828.42 663.68 828.42 663.68 828.42 663.68 836.07 637.07 836.07 637.07 898.1 556.3 898.1 556.29 898.1 500.53 898.1 490.93 898.1 490.93 581.69 490.93 581.69 476.56 581.69 476.56 581.54 476.56 576.53 476.56 567.53 476.56 559.54 476.56 550.53 476.56 542.54 476.56 533.53 476.56 525.54 476.56 516.54 476.56 505 476.56 502.19 477.94 502.19 477.94 499.39 476.56 499.39 476.56 474.4 476.56 471.6 477.94 471.6 477.94 468.79 476.56 468.79 476.56 440.41 476.56 437.6 477.94 437.6 477.94 434.8 476.56 434.8 476.56 406.42 476.56 403.61 477.94 403.61 477.94 403.61 477.94 400.81 476.56 400.81 476.56 389.57 476.56 380.56 476.56 372.58 476.56 363.57 476.56 355.58 476.56 346.57 476.56 338.58 476.56 330.14 457.14 330.14 457.14 306.62 399.97 306.62 399.97 299.54 305.92 299.54 305.92 589.05 324.44 589.05 324.44 616.71 324.51 616.71 324.51 621.87 324.44 621.87 324.44 630.31 324.51 630.31 324.51 635.46 324.44 635.46 324.44 643.91 324.51 643.91 324.51 649.06 324.44 649.06 324.44 657.51 324.51 657.51 324.51 662.66 324.44 662.66 324.44 671.1 324.51 671.1 324.51 676.25 324.44 676.25 324.44 684.7 324.51 684.7 324.51 689.85 324.44 689.85 324.44 698.3 324.51 698.3 324.51 703.45 324.44 703.45 324.44 711.9 324.51 711.9 324.51 717.05 324.44 717.05 324.44 725.49 324.51 725.49 324.51 734.04 324.44 734.04 324.44 742.49 324.51 742.49 324.51 747.64 324.44 747.64 324.44 747.64 324.44 756.09 324.51 756.09 324.51 761.24 324.44 761.24 324.44 769.68 324.51 769.68 324.51 778.23 324.44 778.23 324.44 778.23 324.44 786.68 324.51 786.68 324.51 791.83 324.44 791.83 324.44 800.28 324.51 800.28 324.51 805.43 324.44 805.43 324.44 813.87 324.51 813.87 324.51 822.42 324.44 822.42 324.44 830.87 324.51 830.87 324.51 836.02 324.44 836.02 324.44 844.47 324.51 844.47 324.51 849.62 324.44 849.62 324.44 858.06 324.44 858.07 324.51 858.07 324.51 866.62 324.44 866.62 324.44 875.06 324.51 875.06 324.51 880.21 324.44 880.21 324.44 888.66 324.51 888.66 324.51 893.81 324.44 893.81 324.44 902.26 324.51 902.26 324.51 957.54 324.51 988.75 302.54 988.75 302.54 993.28 324.44 993.28 324.44 1002.63 324.51 1002.63 324.51 1016.23 328.88 1016.23 355.17 1016.23 361.06 1016.23 387.35 1016.23 392.21 1016.23 399.97 1016.23 400.3 1016.23 400.3 1016.23 407.97 1016.23 416.05 1016.23 424.86 1016.23 432.95 1016.23 441.76 1016.23 449.84 1016.23 459.79 1016.23 467.88 1016.23 467.88 1016.23 475.55 1016.23 483.64 1016.23 492.44 1016.23 500.53 1016.23 509.34 1016.23 517.43 1016.23 527.37 1016.23 535.46 1016.23 535.46 1016.23 543.13 1016.23 551.22 1016.23 560.03 1016.23 568.11 1016.23 576.92 1016.23 585.01 1016.23 594.95 1016.23 603.04 1016.23 603.04 1016.23 610.71 1016.23 618.8 1016.23 627.61 1016.23 635.69 1016.23 637.92 1016.23 642.28 1016.23 644.5 1016.23 652.59 1016.23 662.54 1016.23 670.62 1016.23 672.28 1016.23 672.28 1016.23 676.64 1016.23 678.29 1016.23 686.38 1016.23 695.19 1016.23 703.28 1016.23 712.08 1016.23 712.08 1016.23 720.17 1016.23 722.96 1016.23 722.96 1016.23 727.33 1016.23 730.12 1016.23 738.2 1016.23 745.87 1016.23 753.96 1016.23 762.31 1016.23 766.68 1016.23 768.01 1016.23 768.01 1007.16 768.01 997.82 772.38 997.82 772.38 997.82 772.38 993.28 768.01 993.28"/><path class="cls-8" d="m663.08,1022.73c-1.4-29.38-25.56-52.78-55.26-52.78s-53.85,23.4-55.26,52.78h110.53Z"/><path class="cls-9" d="m637.01,842.67l1.11-1.8h-.01s.01-.03.01-.03l-82.82-51.19-1.11,1.8h.01s-.01.03-.01.03l2.89,1.79-2.53,4.1-2.9-1.8-1.12,1.8h.01s-.01.03-.01.03l2.89,1.79-2.2,3.56-3.55-2.19-1.95-1.38h-1.45v-.83h.63v-1.85h0v-.03h-4.95l54.66-88.44h-.01s.01-.03.01-.03l-1.8-1.12-1.29,2.08-7.9-4.88,1.28-2.06h-.01s.01-.03.01-.03l-1.8-1.11-1.29,2.08-4.11-2.54,1.28-2.06h-.01s.01-.03.01-.03l-1.8-1.11-51.19,82.82h.01s-.01.03-.01.03l1.8,1.11,1.8-2.9,4.11,2.54-1.78,2.89h.01s-.01.03-.01.03l1.8,1.11,1.8-2.9,3.57,2.2-2.64,4.27h.01s-.01.03-.01.03l4.32,2.67-2.93,4.74c-.36-.18-.75-.27-1.15-.35-.04,0-.07-.02-.1-.03-.56-.1-1.14-.11-1.73.03-.41.1-.79.25-1.14.45l-87.58-58.09-1.17,1.77h.01s-.01.03-.01.03l2.03,1.35-5.13,7.73-2.04-1.35-1.17,1.77h.01s-.01.03-.01.03l2.03,1.35-2.67,4.02-2.04-1.35-1.17,1.77h.01s-.01.03-.01.03l79.31,52.61-2.07,1.46-5.24,7.75-.41-.25,5.23-8.56h-.01s.01-.03.01-.03l-1.81-1.11-46.53,76.13h.01s-.01.03-.01.03l1.81,1.11,1.28-2.09,4.12,2.52-1.27,2.07h.01s-.01.03-.01.03l1.81,1.11,1.28-2.09,7.93,4.84-1.27,2.07h.01s-.01.03-.01.03l1.81,1.11,36.99-60.52h.03v1.74h.94v.92h-.29l-4.3,59.14h-21.34v1.27h0v.03h1.5v2.19h-1.5v1.27h0v.03h1.5v1.28h-1.5v3.48h0v.03h.91l17.93,24.91-.03.45h-1.93v1.18h.68l-.15,2.09h0l-6.09,82.43h0v.03s1.27,0,1.27,0h62.19v-.03s0,0,0,0l-6.09-82.43h0l-.16-2.09h.76v-1.15h0v-.03h-2.01l-.03-.45,17.93-24.91h.91v-3.48h0v-.03h-1.5v-1.28h1.51v-1.27h0v-.03h-1.5v-2.19h1.51v-1.27h0v-.03h-21.34l-4.3-59.14h-.29v-.92h.94v-1.74h.8v-3.55h.42v-2.54h9.01v-3.28h2.94v-2.75l60.26,37.25,1.12-1.8h-.01s.01-.03.01-.03l-2.07-1.28,4.88-7.89,2.08,1.29,1.11-1.8h-.01s.01-.03.01-.03l-2.07-1.28,2.53-4.1,2.08,1.29Zm-58.65-23.15l2.2-3.56,10.59,6.54-2.2,3.56-10.59-6.54Zm12.58,7.77l2.2-3.56,10.59,6.54-2.2,3.56-10.59-6.54Zm12.58,7.77l2.2-3.56,10.59,6.54-2.2,3.56-10.59-6.54Zm-27.14-16.77l-10.59-6.54,2.2-3.56,10.59,6.54-2.2,3.56Zm-77.1,31.3l-6.49,10.61-3.58-2.19,6.49-10.61,3.58,2.19Zm-7.71,12.61l-6.49,10.61-3.58-2.19,6.49-10.61,3.58,2.19Zm15.42-25.23l-6.49,10.61-3.58-2.19,6.49-10.61,3.58,2.19Zm6.04-9.89l-4.82,7.89-3.58-2.19,3.48-5.7h4.91Zm93.81,2.6l2.53-4.1,10.59,6.54-2.53,4.1-10.59-6.54Zm-12.58-7.77l2.53-4.1,10.59,6.54-2.53,4.1-10.59-6.54Zm-28.26-14.95l-2.2,3.56-10.59-6.54,2.2-3.56,10.59,6.54Zm-96.79-45.11l-2.31,3.49-10.37-6.88,2.31-3.49,10.37,6.88Zm1.95,1.29l10.37,6.88-2.31,3.49-10.37-6.88,2.31-3.49Zm12.32,8.17l10.37,6.88-2.31,3.49-10.37-6.88,2.31-3.49Zm12.32,8.17l10.37,6.88-2.31,3.49-10.37-6.88,2.31-3.49Zm12.32,8.17l10.37,6.88-2.31,3.49-10.37-6.88,2.31-3.49Zm-62-41.12l10.77,7.14-2.31,3.49-10.77-7.14,2.31-3.49Zm7.27,12.41l-2.67,4.02-10.77-7.14,2.67-4.02,10.77,7.14Zm1.95,1.29l10.37,6.88-2.67,4.02-10.37-6.88,2.67-4.02Zm12.32,8.17l10.37,6.88-2.67,4.02-10.37-6.88,2.66-4.02Zm12.32,8.17l10.37,6.88-2.67,4.02-10.37-6.88,2.67-4.02Zm12.32,8.17l10.37,6.88-2.67,4.02-10.37-6.88,2.66-4.02Zm12.32,8.17l10.37,6.88-2.67,4.02-10.37-6.88,2.66-4.02Zm12.32,8.17l2.85,1.89,1.17-1.77h-.01s.01-.03.01-.03l-2.83-1.88,2.31-3.49,4.2,2.79,2.82-4.25,3.17,2.1h-3.81v1.85h0v.03h.63v.83h-1.45l-10.01,7.08-1.71-1.13,2.67-4.02Zm-23.06,45.19l-6.49,10.61-4.12-2.52,6.49-10.61,4.12,2.52Zm-7.71,12.61l-6.49,10.61-4.12-2.52,6.49-10.61,4.12,2.52Zm-7.71,12.61l-6.74,11.02-4.12-2.52,6.74-11.02,4.12,2.52Zm1.82,1.11l3.58,2.19-6.74,11.02-3.58-2.19,6.74-11.02Zm86.05-52.04l.38.24h-.38v-.24Zm49.77,22.25l2.2-3.56,10.99,6.79-2.2,3.56-10.99-6.79Zm3.33-5.38l2.53-4.1,10.99,6.79-2.53,4.1-10.99-6.79Zm-27.14-16.77l-10.59-6.54,2.53-4.1,10.59,6.54-2.53,4.1Zm-12.58-7.77l-10.59-6.54,2.53-4.1,10.59,6.54-2.53,4.1Zm-12.58-7.77l-10.59-6.54,2.53-4.1,10.59,6.54-2.53,4.1Zm-61.95,13.4l.31.19-.09.13v1.96h-.76v2.96h0v.03h2.94v.07l-4.77,7.8-4.12-2.52,6.49-10.61Zm-7.71,12.61l4.12,2.52-6.49,10.61-4.12-2.52,6.49-10.61Zm80.48-109.89l-6.54,10.58-3.57-2.2,6.54-10.58,3.57,2.2Zm-7.77,12.58l-6.54,10.58-3.57-2.2,6.54-10.58,3.57,2.2Zm-7.77,12.58l-6.54,10.58-3.57-2.2,6.54-10.58,3.57,2.2Zm-7.77,12.58l-6.54,10.58-3.57-2.2,6.54-10.58,3.57,2.2Zm24.55-39.72l-3.57-2.2,6.79-10.99,3.57,2.2-6.79,10.99Zm-5.38-3.33l-4.11-2.54,6.79-10.99,4.11,2.54-6.79,10.99Zm-1.23,1.99l-6.54,10.58-4.11-2.54,6.54-10.58,4.11,2.54Zm-7.77,12.58l-6.54,10.58-4.11-2.54,6.54-10.58,4.11,2.54Zm-7.77,12.58l-6.54,10.58-4.11-2.54,6.54-10.58,4.11,2.54Zm-7.77,12.58l-6.54,10.58-4.11-2.54,6.54-10.58,4.11,2.54Zm-7.77,12.58l-6.54,10.58-4.11-2.54,6.54-10.58,4.11,2.54Zm1.81,1.12l3.57,2.2-6.54,10.58-3.57-2.2,6.54-10.58Zm16.14,151.27l5.52-16.1h5.79l-11.02,20.08-.29-3.99Zm-1.01-13.96l.44-2.14h4.49l-4.19,12.23-.73-10.09Zm-45.54-2.14l.44,2.13-.73,10.1-4.19-12.23h4.49Zm-.57,16.09l-.29,3.99-11.02-20.08h5.79l5.52,16.09Zm-16.7-16.09h3.79l12.44,22.67v.2s-16.48-22.87-16.48-22.87h.25Zm64.31,22.67l12.44-22.67h4.04l-16.47,22.87v-.2Zm12.73-27.46v1.28h-7.87v-1.28h7.87Zm-9.14,0v1.28h-5.51l-.09-1.28h5.6Zm-64.44,0h7.87v1.28h-7.87v-1.28Zm9.14,0h5.6l-.09,1.28h-5.51v-1.28Zm5.7-1.29h-5.7v-2.19h5.86l-.16,2.19Zm-6.97,0h-7.87v-2.19h7.87v2.19Zm-9.14-2.19v2.19h-2.21v-2.19h2.21Zm0,3.48v1.28h-2.21v-1.28h2.21Zm78.33,1.28h-2.21v-1.28h2.21v1.28Zm-2.21-2.57v-2.19h2.21v2.19h-2.21Zm-1.27,0h-7.87v-2.19h7.87v2.19Zm-9.14-2.19v2.19h-5.7l-.16-2.19h5.85Z"/><polygon class="cls-3" points="2037.62 1023.17 1978.79 1024.85 1990.2 826.37 2037.62 1023.17"/><path class="cls-9" d="m2172.5,974.54v-2.44h2.05v-3.7h-2.05v-28.14h2.05v-3.7h-2.05v-6.32h.66v-1.46h-7.49v-30.17h1.88v-1.46h-4.63v-17.05h1.14v-1.35h.55v-1.18h-2.06v-4.37c0-3.75-.95-7.46-2.77-10.83l-1.23-2.27c-.42-.78-.88-1.44-1.37-2.01-.1-.12-.21-.2-.32-.31-.39-.42-.8-.8-1.21-1.09-.03-.02-.06-.06-.08-.08v-.73h.18v-.53h.32v-1.1h-.32v-.23h-.69l-1.35-1.3h-.32v-.7h.23v-1.05h-.62v-6.8h-.14v-14.64h.1v-1.35h.16v-.3c.05,0,.09-.04.14-.06.08-.03.16-.03.22-.09.09-.09.15-.22.15-.36s-.06-.26-.15-.36c-.06-.06-.14-.07-.22-.09-.05-.02-.08-.06-.14-.06v-.2h-.79v.2c-.07,0-.12.05-.19.08-.06.03-.12.03-.17.07-.09.09-.15.22-.15.36s.06.26.15.36c.04.04.11.05.17.07.06.03.11.08.19.08v.3h.16v1.35h.1v14.64h-.14v6.8h-.62v1.05h.23v.7h-.32l-1.35,1.3h-.69v.23h-.32v1.1h.32v.53h.18v.77s-.04.04-.06.06c-.05.04-.11.05-.16.09-.36.27-.7.64-1.04,1.01-.1.1-.2.17-.29.29-.48.57-.93,1.22-1.34,1.99l-1.23,2.27c-1.82,3.37-2.77,7.07-2.77,10.83v4.37h-2.06v1.18h.55v1.35h1.06v14.77h-3.03v2.95h-14.65v-.83h1.35v-5.05h.84v-3.44h-5.08v-7.92h-.27v-19.18h.86v-5.85h-.36v-.83c.06-.02.1-.08.16-.11.05-.04.1-.06.15-.1.11-.12.19-.27.19-.45s-.08-.32-.19-.45c-.04-.05-.09-.07-.15-.1-.05-.04-.09-.09-.16-.11v-.7h-.5v-1.2h-.55v1.2h-.5v.7c-.06.02-.1.08-.16.11-.05.04-.1.06-.15.1-.11.12-.19.27-.19.45s.08.32.19.45c.04.05.09.07.14.1.05.04.09.09.16.11v.83h-7.49v5.85h7.99v19.18h-.27v7.92h-1.46l-15.99-12.25-16.41,12.57-16.42-12.57-16.22,12.42-16.22-12.42-15.99,12.25h-1.8v-7.92h-.27v-19.18h.67v-5.85h-.18v-.87s.02-.06.05-.07c.21-.11.39-.3.39-.56s-.17-.44-.39-.56c-.03-.01-.02-.06-.05-.07v-.73h-.5v-1.2h-.55v1.2h-.5v.73s-.02.06-.05.07c-.21.11-.39.3-.39.56s.17.44.39.56c.03.01.02.06.05.07v.87h-7.68v5.85h8.18v19.18h-.27v7.92h-5.09v3.44h.84v5.05h1.35v.83h-13.3v-2.95h-2.99v-14.77h1.14v-1.35h.55v-1.18h-2.07v-4.37c0-.94-.06-1.87-.18-2.8-.35-2.78-1.23-5.5-2.59-8.02l-1.23-2.27c-.42-.78-.88-1.44-1.37-2.01-.1-.12-.21-.19-.31-.3-.39-.42-.8-.8-1.22-1.09-.03-.02-.06-.06-.09-.08v-.73h.18v-.53h.32v-1.1h-.32v-.23h-.69l-1.35-1.3h-.32v-.7h.23v-1.05h-.62v-6.8h-.14v-14.64h.1v-1.35h.16v-.3c.06,0,.1-.05.16-.07.07-.03.15-.03.2-.08.09-.09.15-.22.15-.36s-.06-.26-.15-.36c-.05-.05-.13-.06-.2-.08-.05-.02-.1-.07-.16-.07v-.2h-.79v.2c-.06,0-.1.05-.16.07-.07.03-.15.03-.2.08-.09.09-.15.22-.15.36s.06.26.15.36c.05.05.13.06.2.08.05.02.1.06.16.07v.3h.16v1.35h.1v14.64h-.14v6.8h-.62v1.05h.23v.7h-.32l-1.35,1.3h-.69v.23h-.32v1.1h.32v.53h.18v.77s-.04.04-.06.05c-.05.04-.11.05-.16.09-.36.27-.7.64-1.05,1.01-.1.1-.2.17-.29.28-.02.03-.05.04-.07.07-.45.55-.88,1.19-1.27,1.92l-1.23,2.27c-1.82,3.37-2.77,7.07-2.77,10.83v4.37h-2.06v1.18h.55v1.35h1.07v17.05h-4.67v1.46h.69v30.17h-7.3v1.46h.47v7.32h-.72v3.7h.72v28.14h-.72v3.7h.72v1.44h-3.8v43.52h211.21v-43.52h0s-3.8,0-3.8,0Z"/><path class="cls-9" d="m1702.23,990.96v-3.07h-2.7v-5.11h-4.63v-75.49h-5.09l-13.85-12.89v-5.26h-4.56l-20.82-27.66v-1.22h.4v-2.38h-.4v-.7h-.56v-2.69h-.57v-3.59h1.75v.19h2.48v-1.17h-2.48v.19h-1.75v-1.86h.19v-2.48h-1.17v2.48h.19v1.86h-1.75v-.19h-2.48v1.17h2.48v-.19h1.75v3.59h-.56v2.69h-.57v.7h-.4v2.38h.4v1.22l-3.77,5.69h-18.67v-66.01h0v-5.6h-2.23v-2.98h1.12v-1.28h-1.12v-61.1h.91v-2.5h-6.22v-1.72h-1.49v-2.74h.82v-.96h-.82v-40.96h.73v-2.43h-6.1v-.65h1.07v-2.43h-11.43v-1.72h-2.57c-.21-.9-.62-1.72-1.12-2.5-.08-.13-.16-.27-.25-.39-.52-.73-1.16-1.39-1.89-1.96-.12-.09-.24-.17-.36-.26-1.6-1.14-3.59-1.88-5.79-2.04-.09,0-.17-.05-.26-.05v-20.48h-.4v-13.39h.59v-.33h.53v-.93h-.53v-.33h-.59v-1.29h-.56v1.29h-.59v.33h-.53v.93h.53v.33h.59v13.39h-.4v20.48c-.09,0-.17.04-.26.05-2.2.17-4.19.9-5.79,2.04-.12.09-.24.16-.36.26-.74.57-1.37,1.23-1.89,1.96-.09.13-.17.26-.25.39-.5.78-.9,1.6-1.12,2.5h0s-2.57,0-2.57,0v1.72h-11.43v2.43h1.07v.65h-6.1v2.43h.73v40.96h-.82v.96h.82v2.74h-1.49v1.72h-6.22v2.5h.91v61.1h-1.12v1.28h1.12v2.98h-2.26v5.6h0v4.83h0v1.44h0v11.46h0v1.44h0v11.46h0v1.44h0v11.46h0v1.44h0v21.02h-18.69l-3.83-5.79v-1.12h.4v-2.38h-.4v-.7h-.56v-2.69h-.56v-3.59h1.75v.19h2.48v-1.17h-2.48v.19h-1.75v-1.86h.19v-2.48h-1.17v2.48h.19v1.86h-1.75v-.19h-2.48v1.17h2.48v-.19h1.75v3.59h-.56v2.69h-.56v.7h-.4v2.38h.4v1.3l-20.76,27.57h-4.56v5.26l-13.85,12.89h-5.09v75.49h-4.63v5.11h-2.7v3.07h2.7v22.69h-2.7v3.07h2.7v3.75h224.28v-3.75h2.7v-3.07h-2.7v-22.69h2.7Z"/><path class="cls-5" d="m436.7,996.66c-5.24,0-9.99,2.09-13.47,5.47-3.49-3.38-8.23-5.47-13.46-5.47s-9.84,2-13.29,5.32c-3.48-3.31-8.15-5.32-13.3-5.32-10.4,0-18.88,8.2-19.36,18.54h92.25c-.51-10.34-8.97-18.54-19.37-18.54Z"/><path class="cls-8" d="m239.92,1015.09c-1.05-21.86-19-39.22-41.05-39.22s-40.01,17.37-41.03,39.22h82.07Z"/><path class="cls-1" d="m198.87,1015.09h41.05c-1.05-21.82-19-39.22-41.05-39.22v39.22Z"/><path class="cls-5" d="m278.79,996.4c-5.24,0-9.99,2.09-13.47,5.47-3.49-3.38-8.23-5.47-13.46-5.47s-9.84,2-13.29,5.32c-3.48-3.31-8.15-5.32-13.3-5.32-10.4,0-18.88,8.2-19.36,18.54h92.25c-.51-10.34-8.97-18.54-19.37-18.54Z"/><path class="cls-7" d="m307.85,1006.18c-2.57,0-4.89.99-6.61,2.66-1.71-1.66-4.01-2.66-6.59-2.66s-4.82.97-6.52,2.59c-1.7-1.62-3.98-2.59-6.51-2.59-5.1,0-9.25,4.01-9.5,9.06h45.22c-.25-5.05-4.41-9.06-9.5-9.06Z"/><path class="cls-7" d="m382.76,1006.18c-2.57,0-4.89.99-6.61,2.66-1.71-1.66-4.01-2.66-6.59-2.66s-4.82.97-6.51,2.59c-1.7-1.62-3.99-2.59-6.51-2.59-5.11,0-9.25,4.01-9.5,9.06h45.22c-.24-5.05-4.41-9.06-9.5-9.06Z"/><path class="cls-7" d="m509.85,1006.18c-2.57,0-4.89.99-6.6,2.66-1.71-1.66-4.02-2.66-6.59-2.66s-4.82.97-6.52,2.59c-1.7-1.62-3.98-2.59-6.51-2.59-5.1,0-9.25,4.01-9.5,9.06h45.22c-.25-5.05-4.41-9.06-9.5-9.06Z"/><path class="cls-5" d="m677.98,996.66c-5.24,0-9.99,2.09-13.47,5.47-3.49-3.38-8.23-5.47-13.46-5.47s-9.84,2-13.29,5.32c-3.48-3.31-8.15-5.32-13.3-5.32-10.4,0-18.88,8.2-19.36,18.54h92.25c-.51-10.34-8.97-18.54-19.37-18.54Z"/><path class="cls-7" d="m777.22,1006.18c-2.57,0-4.89.99-6.6,2.66-1.71-1.66-4.02-2.66-6.59-2.66s-4.82.97-6.52,2.59c-1.7-1.62-3.98-2.59-6.51-2.59-5.1,0-9.25,4.01-9.5,9.06h45.22c-.24-5.05-4.41-9.06-9.5-9.06Z"/><path class="cls-7" d="m173.67,1006.18c-2.57,0-4.89.99-6.61,2.66-1.71-1.66-4.02-2.66-6.59-2.66s-4.82.97-6.52,2.59c-1.7-1.62-3.98-2.59-6.51-2.59-5.1,0-9.25,4.01-9.5,9.06h45.22c-.25-5.05-4.41-9.06-9.5-9.06Z"/><path class="cls-5" d="m1486.61,996.66c-5.24,0-9.99,2.09-13.47,5.47-3.49-3.38-8.23-5.47-13.46-5.47s-9.84,2-13.29,5.32c-3.48-3.31-8.15-5.32-13.3-5.32-10.4,0-18.88,8.2-19.36,18.54h92.25c-.51-10.34-8.97-18.54-19.37-18.54Z"/><path class="cls-5" d="m970.3,1015.09c-1.05-21.86-19-39.22-41.05-39.22s-40.01,17.37-41.03,39.22h82.07Z"/><path class="cls-8" d="m929.25,1015.09h41.05c-1.05-21.82-19-39.22-41.05-39.22v39.22Z"/><path class="cls-5" d="m1009.17,996.4c-5.24,0-9.99,2.09-13.47,5.47-3.49-3.38-8.23-5.47-13.46-5.47s-9.84,2-13.29,5.32c-3.48-3.31-8.15-5.32-13.3-5.32-10.4,0-18.88,8.2-19.36,18.54h92.25c-.51-10.34-8.97-18.54-19.37-18.54Z"/><path class="cls-7" d="m1038.23,1006.18c-2.57,0-4.89.99-6.61,2.66-1.71-1.66-4.01-2.66-6.59-2.66s-4.82.97-6.52,2.59c-1.7-1.62-3.98-2.59-6.51-2.59-5.1,0-9.25,4.01-9.5,9.06h45.22c-.25-5.05-4.41-9.06-9.5-9.06Z"/><path class="cls-7" d="m1400.08,1006.18c-2.57,0-4.89.99-6.61,2.66-1.71-1.66-4.01-2.66-6.59-2.66s-4.82.97-6.51,2.59c-1.7-1.62-3.99-2.59-6.51-2.59-5.11,0-9.25,4.01-9.5,9.06h45.22c-.24-5.05-4.41-9.06-9.5-9.06Z"/><path class="cls-7" d="m1507.6,1006.18c-2.57,0-4.89.99-6.6,2.66-1.71-1.66-4.02-2.66-6.59-2.66s-4.82.97-6.52,2.59c-1.7-1.62-3.98-2.59-6.51-2.59-5.1,0-9.25,4.01-9.5,9.06h45.22c-.25-5.05-4.41-9.06-9.5-9.06Z"/><path class="cls-5" d="m2145.26,996.66c-5.24,0-9.99,2.09-13.47,5.47-3.49-3.38-8.23-5.47-13.46-5.47s-9.84,2-13.29,5.32c-3.48-3.31-8.15-5.32-13.3-5.32-10.4,0-18.88,8.2-19.36,18.54h92.25c-.51-10.34-8.97-18.54-19.37-18.54Z"/><path class="cls-8" d="m2790.86,996.66c-5.24,0-9.99,2.09-13.47,5.47-3.49-3.38-8.23-5.47-13.46-5.47s-9.84,2-13.29,5.32c-3.48-3.31-8.15-5.32-13.3-5.32-10.4,0-18.88,8.2-19.36,18.54h92.25c-.51-10.34-8.97-18.54-19.37-18.54Z"/><path class="cls-7" d="m2192.33,1006.18c-2.57,0-4.89.99-6.6,2.66-1.71-1.66-4.02-2.66-6.59-2.66s-4.82.97-6.52,2.59c-1.7-1.62-3.98-2.59-6.51-2.59-5.1,0-9.25,4.01-9.5,9.06h45.22c-.24-5.05-4.41-9.06-9.5-9.06Z"/><path class="cls-7" d="m2329.27,1006.18c-2.57,0-4.89.99-6.6,2.66-1.71-1.66-4.02-2.66-6.59-2.66s-4.82.97-6.52,2.59c-1.7-1.62-3.98-2.59-6.51-2.59-5.1,0-9.25,4.01-9.5,9.06h45.22c-.25-5.05-4.41-9.06-9.5-9.06Z"/><path class="cls-7" d="m2727.07,1006.18c-2.57,0-4.89.99-6.6,2.66-1.71-1.66-4.02-2.66-6.59-2.66s-4.82.97-6.52,2.59c-1.7-1.62-3.98-2.59-6.51-2.59-5.1,0-9.25,4.01-9.5,9.06h45.22c-.25-5.05-4.41-9.06-9.5-9.06Z"/><path class="cls-7" d="m2857.49,1006.18c-2.57,0-4.89.99-6.6,2.66-1.71-1.66-4.02-2.66-6.59-2.66s-4.82.97-6.52,2.59c-1.7-1.62-3.98-2.59-6.51-2.59-5.1,0-9.25,4.01-9.5,9.06h45.22c-.25-5.05-4.41-9.06-9.5-9.06Z"/><path class="cls-7" d="m2524.91,1006.18c-2.57,0-4.89.99-6.6,2.66-1.71-1.66-4.02-2.66-6.59-2.66s-4.82.97-6.52,2.59c-1.7-1.62-3.98-2.59-6.51-2.59-5.1,0-9.25,4.01-9.5,9.06h45.22c-.25-5.05-4.41-9.06-9.5-9.06Z"/><path class="cls-7" d="m904.05,1006.18c-2.57,0-4.89.99-6.61,2.66-1.71-1.66-4.02-2.66-6.59-2.66s-4.82.97-6.52,2.59c-1.7-1.62-3.98-2.59-6.51-2.59-5.1,0-9.25,4.01-9.5,9.06h45.22c-.25-5.05-4.41-9.06-9.5-9.06Z"/><path class="cls-5" d="m1722.97,1015.46c-.9-18.68-16.3-33.52-35.2-33.52s-34.3,14.84-35.18,33.52h70.38Z"/><path class="cls-8" d="m1687.77,1015.46h35.2c-.9-18.65-16.3-33.52-35.2-33.52v33.52Z"/><path class="cls-5" d="m1840.36,997.49c-5.16,0-9.85,2.05-13.28,5.37-3.44-3.32-8.12-5.37-13.27-5.37s-9.71,1.97-13.11,5.23c-3.43-3.26-8.04-5.23-13.12-5.23-10.26,0-18.61,8.06-19.09,18.23h90.98c-.5-10.16-8.85-18.23-19.1-18.23Z"/><path class="cls-7" d="m1951.15,1004.84c-3.33,0-6.34,1.28-8.57,3.43-2.21-2.15-5.2-3.43-8.54-3.43s-6.25,1.25-8.44,3.35c-2.21-2.1-5.16-3.35-8.43-3.35-6.62,0-11.99,5.18-12.32,11.7h58.61c-.32-6.52-5.71-11.7-12.31-11.7Z"/><path class="cls-7" d="m1671.59,1004.84c-3.33,0-6.34,1.28-8.57,3.43-2.21-2.15-5.2-3.43-8.54-3.43s-6.25,1.25-8.44,3.35c-2.21-2.1-5.16-3.35-8.43-3.35-6.62,0-11.99,5.18-12.32,11.7h58.61c-.32-6.52-5.71-11.7-12.31-11.7Z"/></svg>