<?xml version="1.0" encoding="UTF-8"?><svg id="Layer_1" xmlns="http://www.w3.org/2000/svg" viewBox="0 0 732.64 638.92"><defs><style>.cls-1{fill:#ffb7b7;}.cls-2{fill:#f0f0f0;}.cls-3{fill:#2f2e41;}.cls-4{fill:#fff;}.cls-5{fill:#cbcbcb;}.cls-6{fill:#3f3d56;}.cls-7{fill:#9f616a;}.cls-8{fill:#5e35b1;}.cls-9{fill:#e4e4e4;}</style></defs><path class="cls-6" d="m119.12,309.95c-2.6,0-5.19-.16-7.77-.48-1.16.03-2.29-.43-3.1-1.27-1.75-1.82-1.65-4.93-1.65-5.06v-41.86c-.37-3.11.56-6.24,2.56-8.64,1.05-1.31,1.73-2.87,1.97-4.54l3.29-24.68c.13-.99,1.03-1.69,2.02-1.59,1.67.09,3.35.05,5.01-.12h.02c.96-.07,1.82.62,1.95,1.58l3.42,25.2c.23,1.65.9,3.21,1.92,4.52,1.99,2.43,2.82,5.61,2.27,8.71v41.23c0,5.68-3.98,6.5-4.02,6.51-2.62.33-5.25.5-7.89.5Zm-2.86-86.71c-.22-.01-.41.15-.44.36l-3.29,24.69c-.27,1.92-1.06,3.73-2.27,5.24-1.77,2.12-2.58,4.87-2.25,7.61v.09s0,41.93,0,41.93c0,.05-.08,2.67,1.25,4.05.56.57,1.33.87,2.12.83h.09c5.08.64,10.23.64,15.31,0,.07-.02,2.82-.64,2.82-5.11v-41.42c.51-2.71-.21-5.5-1.96-7.63-1.18-1.51-1.94-3.31-2.21-5.21l-3.42-25.21c-.03-.21-.22-.37-.44-.36-1.75.17-3.5.22-5.26.12-.02,0-.04,0-.06,0h0Z"/><path class="cls-8" d="m116.32,261.99h5.22c4.32,0,7.82,3.5,7.82,7.82v19.63c0,4.32-3.5,7.82-7.82,7.82h-5.22c-4.32,0-7.82-3.5-7.82-7.82h0v-19.63c0-4.32,3.5-7.82,7.82-7.82h0Z"/><polygon class="cls-7" points="20.43 622.44 37.44 622.44 45.53 556.85 20.43 556.85 20.43 622.44"/><path class="cls-3" d="m16.09,616.89h33.49s0,0,0,0c11.79,0,21.34,9.56,21.34,21.34v.69H16.1s0-22.03,0-22.03Z"/><path class="cls-3" d="m9.74,388.16s-7.37,8.33,4.83,40.8l-2.15,178.06,39.55-.77,8.69-86.86,15.83-126.75-66.75-4.49Z"/><path class="cls-6" d="m90.06,412.78l-.43-.07c-50.59-7.72-88.77-15.11-89.15-15.19L0,397.44l13.26-32.26c-.1-3.37-2.98-98.02,2.52-125.22,5.32-26.33,30.4-30.64,33.26-31.05l2.87-9.51,36.25,18.86,6.32,21.76,1.28,59.64-5.71,113.11Z"/><path class="cls-7" d="m111.89,290.03c-3.3,0-6.45,1.38-8.69,3.8h-60.93l-22.32,4.75,3.66,28.26,79.4-17.08c4.35,4.91,11.85,5.36,16.76,1.02,4.91-4.35,5.36-11.85,1.02-16.76-2.25-2.55-5.49-4-8.89-4h0Z"/><circle class="cls-7" cx="86.65" cy="174.64" r="29.37"/><path class="cls-3" d="m59.03,151.16l-1.42-2.87,7.16-3.56s7.9-12.86,22.2-9.24,20.73,5.78,20.73,5.78l7.15,3.6-3.59,3.57,6.43,2.16-4.3,2.14,5,2.87-2.69,14.74s-4.47-11.18-13.07-6.91-24.32-2.21-24.32-2.21l-13.66,26.44s-2.82-9.27-7.84-6.8c0,0-12.84-20.44,2.21-29.71Z"/><path class="cls-6" d="m24,332.14l-6.97-20.73-1.69-69.09,2.97-9.8c4.38-14.48,19.68-22.66,34.15-18.27,14.48,4.38,22.66,19.68,18.27,34.15-.21.68-.44,1.35-.7,2.02l-15.91,40.78.81,1.57,34.48-.28,12.25,22.04-77.66,17.61Z"/><path class="cls-1" d="m368.95,323.63c4.86-3.27,6.15-9.87,2.87-14.73-.35-.52-.74-1-1.18-1.45l16.99-33.66-19.47,2.26-13.15,31.62c-3.95,4.37-3.61,11.12.76,15.07,3.66,3.31,9.1,3.68,13.17.9Z"/><polygon class="cls-1" points="505.24 562.08 489.92 562.07 482.64 503 505.24 503 505.24 562.08"/><path class="cls-3" d="m509.15,576.92h-49.38v-.63c0-10.62,8.61-19.22,19.22-19.22h30.16s0,19.85,0,19.85Z"/><polygon class="cls-1" points="421.54 562.08 406.22 562.07 398.94 503 421.54 503 421.54 562.08"/><path class="cls-3" d="m421.7,576.92h-49.38v-.63c0-10.62,8.61-19.22,19.22-19.22h30.16s0,19.85,0,19.85Z"/><polygon class="cls-3" points="420.29 312.57 405.29 347.11 392.93 545.61 424.16 544.36 432.69 449.74 459 365.45 474.13 459.42 480.38 541.87 506.22 542.98 516.52 312.57 420.29 312.57"/><path class="cls-8" d="m495.22,142.15l-43.45,1.09-25.51,13.1-1.4,96.61-15.91,66.7s99.4,6.84,113.15-3.15l-16.24-76.2,21.78-82.36-32.42-15.79Z"/><path class="cls-8" d="m432.97,157.94l-4.04-2.73s-16.76,5.02-21.71,27.37c0,0-3.79,11.21-5.45,18.92-1.91,8.84-44.03,90.04-44.03,90.04l25.22,7.23,46.23-74.77,3.78-66.06Z"/><path class="cls-1" d="m526.96,336.02c-3.77-4.49-3.19-11.18,1.3-14.95.48-.4.99-.76,1.53-1.07l-7.05-37.04,18.09,7.54,3.92,34.02c2.59,5.29.41,11.68-4.88,14.28-4.43,2.17-9.76,1.03-12.91-2.77Z"/><path class="cls-8" d="m521.1,159.1l4.64-1.51s14.72,9.45,13.32,32.29c0,0,.55,11.82.02,19.69-.6,9.02,7.5,98.69,7.5,98.69h-26.23l-11.24-81.2,11.99-67.96Z"/><path class="cls-1" d="m505.89,101.62c0,16.63-13.48,30.12-30.12,30.12s-30.12-13.48-30.12-30.12,13.48-30.12,30.12-30.12h0c16.59-.04,30.08,13.38,30.12,29.97,0,.05,0,.1,0,.15Z"/><path class="cls-3" d="m445.75,61.17c3.53-7.59,10.36-6.09,16.33-3.52,7.56-1.68,14.75-6.7,22.9-3.73,8.03,11.67,34.97,8.24,29.24,27.24,0,4.55,8.57,1.9,7.07,9.36,4.54,14.35-16.4,41.53-28.42,35.81,2.97-5.45,9.77-17.83-.54-19.05-22.16,20.62-2.29-39.26-30.13-21.85-9.22,8.44-21.84-15.83-16.45-24.27Z"/><path class="cls-7" d="m532.23,339.02c5.42,1.09,10.7-2.42,11.79-7.84.12-.58.18-1.16.19-1.75l75.63-71.18-17.02-13.57-69.12,74.42c-5.55.25-9.85,4.95-9.61,10.5.21,4.65,3.57,8.55,8.13,9.43h0Z"/><path class="cls-5" d="m609.12,269.75l-14.71-17.24c-1.61-1.89-1.38-4.72.5-6.33.17-.14.35-.27.53-.39l19.15-11.99c5.26-4.44,13.12-3.77,17.56,1.49,4.42,5.24,3.78,13.07-1.44,17.52l-14.8,16.98c-1.63,1.87-4.46,2.06-6.33.43-.17-.14-.32-.3-.46-.47h0Z"/><polygon class="cls-7" points="569.56 621 551.07 621 542.27 549.67 569.56 549.68 569.56 621"/><path class="cls-3" d="m574.27,638.92h-59.62v-.76c0-12.82,10.39-23.21,23.21-23.21h36.42s0,23.96,0,23.96Z"/><polygon class="cls-7" points="717.36 621 698.88 621 690.08 549.67 717.37 549.68 717.36 621"/><path class="cls-3" d="m722.08,638.92h-59.62v-.76c0-12.82,10.39-23.21,23.21-23.21h36.42s0,23.96,0,23.96Z"/><path class="cls-3" d="m667.63,307.56l18.64-68.86-24.18-13.59h-33.75l-13.13,14.04s-21.93,15.26-16.62,32.17l8.56,38.51-13.1,61.16-65.99,91.52-15.62,89.89,61.49,16.12,66.49-130.93,32.24,144.97,59.98-3.02-20.67-175.78s-5.89-53.55-36.77-86.98l-7.57-9.22Z"/><path class="cls-7" d="m706.12,368.49c3.93-3.89,3.96-10.23.07-14.16-.41-.42-.87-.8-1.35-1.14l-14.46-97.56-20.76,6.55,20.78,93.96c-2.89,4.75-1.39,10.94,3.36,13.83,3.97,2.42,9.08,1.8,12.37-1.49Z"/><path class="cls-5" d="m693.95,270.94l-22.52,2.6c-2.46.28-4.69-1.48-4.97-3.94-.03-.22-.03-.44-.03-.66l.73-22.59c-.75-6.84,4.19-13,11.03-13.75,6.82-.75,12.96,4.15,13.74,10.97l5.84,21.76c.64,2.39-.78,4.86-3.17,5.5-.21.06-.43.1-.65.12h0Z"/><path class="cls-3" d="m607.47,205.52v-29.01c0-21.47,17.41-38.88,38.88-38.88s38.88,17.41,38.88,38.88v29.01c0,2.88-2.34,5.22-5.22,5.22h-67.31c-2.88,0-5.22-2.34-5.22-5.22Z"/><circle class="cls-7" cx="638.36" cy="181.56" r="28.51"/><path class="cls-3" d="m598.27,178.83c.02-16.98,13.78-30.74,30.76-30.76h5.8c16.98.02,30.74,13.78,30.76,30.76v.58h-12.26l-4.18-11.71-.84,11.71h-6.34l-2.11-5.91-.42,5.91h-41.16v-.58Z"/><path class="cls-3" d="m635.55,214c-1.17-1.59-1.33-3.71-.41-5.46,6.15-11.7,14.76-33.31,3.33-46.64l-.82-.96h33.18v49.81l-30.14,5.32c-.31.05-.61.08-.92.08-1.67,0-3.24-.8-4.21-2.15Z"/><path class="cls-1" d="m330.6,240.53c-.42.43-.81.9-1.15,1.39l-54.06-1.32-6.31-11.52-18.64,7.24,9.18,21.49c1.52,3.57,5.22,5.7,9.07,5.23l61.08-7.38c3.92,4.96,11.12,5.81,16.08,1.89s5.81-11.12,1.89-16.08c-3.92-4.96-11.12-5.81-16.08-1.89-.37.29-.72.61-1.06.95h0Z"/><polygon class="cls-1" points="154.37 568.84 172.15 568.84 180.6 500.27 154.37 500.28 154.37 568.84"/><path class="cls-3" d="m149.84,563.03h35.01s0,0,0,0c12.32,0,22.31,9.99,22.31,22.31v.72h-57.31s0-23.03,0-23.03Z"/><polygon class="cls-1" points="315.78 568.44 332.12 561.46 312.97 495.09 288.84 505.39 315.78 568.44"/><path class="cls-3" d="m309.33,564.89l32.19-13.75h0c11.33-4.84,24.44.42,29.28,11.75l.28.67-52.71,22.52-9.05-21.18Z"/><polygon class="cls-1" points="240.77 255.38 242.06 276.21 204.49 280.23 165.17 284.44 176.74 252.81 240.77 255.38"/><path class="cls-9" d="m242.09,262.85c-.43-.17-42.86-16.67-68.93-3.18l-.64.33-5.2-25.6-2.96-55.03,19.28-9.11,5.31-11.89,36.16-2.14,7.43,10.19,25.3,8.29-15.12,88.38-.62-.25Z"/><path class="cls-9" d="m243.42,213.18l4.47-35.14,10.18-3.1.17.06c.24.09,5.77,2.2,7.28,9.87,1.45,7.35,12.41,53.12,12.52,53.58l.11.46-25.73,10.3-9.01-36.03Z"/><path class="cls-3" d="m302.54,556.39l34.25-7.03-54.75-151.07-18.74-51.53s-11.88-41.32-17.25-57.3l-3.24-21.45-76.71,8.49s-21.42,31.46-14.92,82.75l-2.94,192.75,34.25,1.76,28.69-194.4,50.36,106.57s15.87,45.48,27.23,55.33l13.76,35.13Z"/><path class="cls-1" d="m196.87,283.65c-.6-.01-1.21.02-1.8.1l-35.79-40.54,4.16-12.46-17.98-8.74-9.51,21.34c-1.58,3.54-.63,7.7,2.33,10.21l46.94,39.77c-.97,6.25,3.3,12.1,9.55,13.07,6.25.97,12.1-3.3,13.07-9.55.97-6.25-3.3-12.1-9.55-13.07-.47-.07-.94-.12-1.41-.13h0Z"/><path class="cls-9" d="m142.22,228.02l13.99-39.85c1.57-4.7,3.54-7.55,5.86-8.48.92-.41,1.97-.42,2.9-.03l6.27,7.93,5.82,24.46-14.93,35.11-19.92-19.14Z"/><path class="cls-3" d="m234.82,148h-61.42c-2.63,0-4.76-2.13-4.77-4.77v-26.47c0-19.59,15.88-35.47,35.47-35.47s35.47,15.88,35.47,35.47h0v26.47c0,2.63-2.13,4.76-4.77,4.77Z"/><circle class="cls-1" cx="211.4" cy="121.37" r="26.01"/><path class="cls-3" d="m247.97,119.41h-37.55l-.39-5.39-1.93,5.39h-5.78l-.76-10.69-3.82,10.69h-11.19v-.53c.02-15.49,12.57-28.04,28.06-28.06h5.29c15.49.02,28.04,12.57,28.06,28.06v.53Z"/><path class="cls-3" d="m210.11,152.94c-.28,0-.56-.03-.84-.07l-27.5-4.85v-45.45h30.27l-.75.87c-10.43,12.16-2.57,31.88,3.04,42.55.84,1.6.7,3.53-.37,4.98-.89,1.23-2.32,1.96-3.85,1.96Z"/><path class="cls-4" d="m539.52,262.18c-1.71.17-3.44.21-5.16.12-.61-.07-1.16.37-1.24.98l-3.29,24.69c-.25,1.79-.99,3.48-2.12,4.89-1.89,2.27-2.76,5.22-2.4,8.15v41.93s-.21,5.59,4.08,5.59c5.14.65,10.34.65,15.48,0,0,0,3.44-.65,3.44-5.81v-41.29c.53-2.92-.25-5.92-2.12-8.21-1.1-1.41-1.81-3.09-2.06-4.86l-3.42-25.2c-.08-.59-.6-1.01-1.2-.97Z"/><path class="cls-6" d="m537.12,349.71c-2.6,0-5.19-.16-7.77-.48-1.16.03-2.29-.43-3.1-1.27-1.75-1.82-1.65-4.93-1.65-5.06v-41.86c-.37-3.11.56-6.24,2.56-8.64,1.05-1.31,1.73-2.87,1.97-4.54l3.29-24.68c.13-.99,1.03-1.69,2.02-1.59,1.67.09,3.35.05,5.01-.12h.02c.96-.07,1.82.62,1.95,1.58l3.42,25.2c.23,1.65.9,3.21,1.92,4.52,1.99,2.43,2.82,5.61,2.27,8.71v41.23c0,5.68-3.98,6.5-4.02,6.51-2.62.33-5.25.5-7.89.5Zm-2.86-86.71c-.22-.01-.41.15-.44.36l-3.29,24.69c-.27,1.92-1.06,3.73-2.27,5.24-1.77,2.12-2.58,4.87-2.25,7.61v.09s0,41.93,0,41.93c0,.05-.08,2.67,1.25,4.05.56.57,1.33.87,2.12.83h.09c5.08.64,10.23.64,15.31,0,.07-.02,2.82-.64,2.82-5.11v-41.42c.51-2.71-.21-5.5-1.96-7.63-1.18-1.51-1.94-3.31-2.21-5.21l-3.42-25.21c-.03-.21-.22-.37-.44-.36-1.75.17-3.5.22-5.26.12-.02,0-.04,0-.06,0Z"/><path class="cls-8" d="m534.32,301.75h5.22c4.32,0,7.82,3.5,7.82,7.82h0v19.63c0,4.32-3.5,7.82-7.82,7.82h-5.22c-4.32,0-7.82-3.5-7.82-7.82h0v-19.63c0-4.32,3.5-7.82,7.82-7.82h0Z"/><path class="cls-4" d="m362.52,228.18c-1.71.17-3.44.21-5.16.12-.61-.07-1.16.37-1.24.98l-3.29,24.69c-.25,1.79-.99,3.48-2.12,4.89-1.89,2.27-2.76,5.22-2.4,8.15v41.93s-.21,5.59,4.08,5.59c5.14.65,10.34.65,15.48,0,0,0,3.44-.65,3.44-5.81v-41.29c.53-2.92-.25-5.92-2.12-8.21-1.1-1.41-1.81-3.09-2.06-4.86l-3.42-25.2c-.08-.59-.6-1.01-1.2-.97Z"/><path class="cls-6" d="m360.12,315.71c-2.6,0-5.19-.16-7.77-.48-1.16.03-2.29-.43-3.1-1.27-1.75-1.82-1.65-4.93-1.65-5.06v-41.86c-.37-3.11.56-6.24,2.56-8.64,1.05-1.31,1.73-2.87,1.97-4.54l3.29-24.68c.13-.99,1.03-1.69,2.02-1.59,1.67.09,3.35.05,5.01-.12h.02c.96-.07,1.82.62,1.95,1.58l3.42,25.2c.23,1.65.9,3.21,1.92,4.52,1.99,2.43,2.82,5.61,2.27,8.71v41.23c0,5.68-3.98,6.5-4.02,6.51-2.62.33-5.25.5-7.89.5Zm-2.86-86.71c-.22-.01-.41.15-.44.36l-3.29,24.69c-.27,1.92-1.06,3.73-2.27,5.24-1.77,2.12-2.58,4.87-2.25,7.61v.09s0,41.93,0,41.93c0,.05-.08,2.67,1.25,4.05.56.57,1.33.87,2.12.83h.09c5.08.64,10.23.64,15.31,0,.07-.02,2.82-.64,2.82-5.11v-41.42c.51-2.71-.21-5.5-1.96-7.63-1.18-1.51-1.94-3.31-2.21-5.21l-3.42-25.21c-.03-.21-.22-.37-.44-.36-1.75.17-3.5.22-5.26.12-.02,0-.04,0-.06,0Z"/><path class="cls-8" d="m357.32,267.75h5.22c4.32,0,7.82,3.5,7.82,7.82v19.63c0,4.32-3.5,7.82-7.82,7.82h-5.22c-4.32,0-7.82-3.5-7.82-7.82v-19.63c0-4.32,3.5-7.82,7.82-7.82h0Z"/><path class="cls-4" d="m332.52,192.18c-1.71.17-3.44.21-5.16.12-.61-.07-1.16.37-1.24.98l-3.29,24.69c-.25,1.79-.99,3.48-2.12,4.89-1.89,2.27-2.76,5.22-2.4,8.15v41.93s-.21,5.59,4.08,5.59c5.14.65,10.34.65,15.48,0,0,0,3.44-.65,3.44-5.81v-41.29c.53-2.92-.25-5.92-2.12-8.21-1.1-1.41-1.81-3.09-2.06-4.86l-3.42-25.2c-.08-.59-.6-1.01-1.2-.97Z"/><path class="cls-6" d="m330.12,279.71c-2.6,0-5.19-.16-7.77-.48-1.16.03-2.29-.43-3.1-1.27-1.75-1.82-1.65-4.93-1.65-5.06v-41.86c-.37-3.11.56-6.24,2.56-8.64,1.05-1.31,1.73-2.87,1.97-4.54l3.29-24.68c.13-.99,1.03-1.69,2.02-1.59,1.67.09,3.35.05,5.01-.12h.02c.96-.07,1.82.62,1.95,1.58l3.42,25.2c.23,1.65.9,3.21,1.92,4.52,1.99,2.43,2.82,5.61,2.27,8.71v41.23c0,5.68-3.98,6.5-4.02,6.51-2.62.33-5.25.5-7.89.5Zm-2.86-86.71c-.22-.01-.41.15-.44.36l-3.29,24.69c-.27,1.92-1.06,3.73-2.27,5.24-1.77,2.12-2.58,4.87-2.25,7.61v.09s0,41.93,0,41.93c0,.05-.08,2.67,1.25,4.05.56.57,1.33.87,2.12.83h.09c5.08.64,10.23.64,15.31,0,.07-.02,2.82-.64,2.82-5.11v-41.42c.51-2.71-.21-5.5-1.96-7.63-1.18-1.51-1.94-3.31-2.21-5.21l-3.42-25.21c-.03-.21-.22-.37-.44-.36-1.75.17-3.5.22-5.26.12-.02,0-.04,0-.06,0Z"/><path class="cls-8" d="m327.32,231.75h5.22c4.32,0,7.82,3.5,7.82,7.82v19.63c0,4.32-3.5,7.82-7.82,7.82h-5.22c-4.32,0-7.82-3.5-7.82-7.82v-19.63c0-4.32,3.5-7.82,7.82-7.82h0Z"/><circle class="cls-2" cx="56.19" cy="46" r="25"/><circle class="cls-2" cx="632.19" cy="25" r="25"/><circle class="cls-2" cx="346.19" cy="95" r="18"/></svg>